<?xml version="1.0" encoding="UTF-8"?>
<!DOCTYPE svg PUBLIC "-//W3C//DTD SVG 1.1//EN" "http://www.w3.org/Graphics/SVG/1.1/DTD/svg11.dtd">
<!-- Creator: CorelDRAW 2021 (64-Bit) -->
<svg xmlns="http://www.w3.org/2000/svg" xml:space="preserve" width="0.45in" height="0.45in" version="1.1" style="shape-rendering:geometricPrecision; text-rendering:geometricPrecision; image-rendering:optimizeQuality; fill-rule:evenodd; clip-rule:evenodd"
viewBox="0 0 450 450"
 xmlns:xlink="http://www.w3.org/1999/xlink"
 xmlns:xodm="http://www.corel.com/coreldraw/odm/2003">
 <defs>
  <style type="text/css">
   <![CDATA[
    .fil0 {fill:#138C01}
    .fil1 {fill:#188906}
    .fil2 {fill:#198A07}
    .fil3 {fill:#1C8B0A}
   ]]>
  </style>
 </defs>
 <g id="Layer_x0020_1">
  <metadata id="CorelCorpID_0Corel-Layer"/>
  <g id="_1554853309072">
   <path class="fil0" d="M197.46 430.65c-0.91,0 -1.96,-0.21 -2.84,-0.23l-2.96 -0.23c0.62,-0.93 1.15,-1.93 1.74,-2.92l12.37 -20.98c0.58,0.05 0.41,0.11 0.88,1.28l4.49 11.44c1.14,3.08 2.76,6.72 3.87,9.79 0.2,0.56 0.4,1.06 0.63,1.64 0.17,0.43 0.57,1.25 0.6,1.68 -0.31,-0.15 -5.13,-0.46 -5.92,-0.46l-0.98 -2.89c-0.22,-0.7 -0.22,-0.84 -1.07,-0.87l-9.11 -0.68c-0.13,0.56 -0.56,1.11 -0.83,1.67 -0.31,0.63 -0.76,1.24 -0.87,1.75zm25.76 -430.65l3.25 0c0.59,0.02 0.84,0.12 1.49,0.12 0.57,0 1.14,-0 1.71,-0l3.41 0.12c0.6,0.02 1.23,-0.03 1.83,-0.01 0.61,0.02 0.85,0.13 1.59,0.12 1.67,-0.02 3.45,0.15 5.03,0.32l8.06 0.7c3.9,0.33 8.57,1.06 12.41,1.7 11.48,1.91 22.77,4.65 33.79,8.32 9.81,3.28 19.49,7.14 28.73,11.78 0.43,0.22 0.71,0.36 1.14,0.57l2.08 1.12c2.43,1.16 4.68,2.47 7.06,3.74l4.47 2.59c1.47,0.88 2.9,1.74 4.4,2.66l2.17 1.36c0.75,0.5 1.39,0.89 2.14,1.39 3.5,2.33 6.98,4.66 10.34,7.18l3.06 2.29c2.21,1.65 8.71,6.79 11.11,9.04l6.94 6.27c0.58,0.48 1.22,1.2 1.77,1.76 0.36,0.37 0.55,0.48 0.91,0.8 1.15,1.01 3.31,3.21 4.33,4.43 0.49,0.58 1.2,1.22 1.76,1.77l9.17 10.3c2.95,3.51 5.78,7.14 8.53,10.81 2.79,3.71 5.37,7.54 7.94,11.41l7.25 11.99c0.23,0.41 0.41,0.76 0.65,1.17l1.25 2.28c0.25,0.41 0.38,0.67 0.6,1.11 1.15,2.36 2.57,4.56 3.6,6.98 1.15,2.7 2.67,5.5 3.89,8.43 1.55,3.72 3.21,7.39 4.57,11.22l2.76 7.71c1.5,4.49 2.76,9 4.06,13.57 0.53,1.87 0.93,3.72 1.39,5.55 2.79,11.11 4.5,22.75 5.38,34.23 0.24,3.07 0.57,6.02 0.56,9.11l0.16 6.78c0.03,0.2 0.05,0.4 0.07,0.61l0 3.06c-0.02,0.59 -0.12,0.84 -0.12,1.49 0,0.57 0,1.14 0,1.71l-0.12 3.41c-0.06,2.18 -0.07,4.54 -0.32,6.74l-0.24 3.29c-0.27,3.43 -0.52,6.33 -0.95,9.63l-1.33 9.25c-0.67,4.03 -1.47,7.89 -2.27,11.73 -0.99,4.72 -2.27,9.41 -3.59,14.05 -0.28,0.97 -0.54,1.76 -0.81,2.72 -0.27,0.94 -0.54,1.84 -0.83,2.7l-1.74 5.2c-0.29,0.87 -0.62,1.74 -0.91,2.62 -1.37,4.15 -3.23,8.65 -4.99,12.65 -0.35,0.79 -0.66,1.63 -1.03,2.39l-2.21 4.85c-0.35,0.84 -0.78,1.54 -1.17,2.36l-4.17 8.23c-0.22,0.42 -0.38,0.65 -0.61,1.1 -2.35,4.66 -8.85,15.11 -11.99,19.53l-5.92 8.2c-2.22,2.96 -4.68,5.89 -6.99,8.83 -1.54,1.96 -3.33,3.76 -4.93,5.66l-4.17 4.6c-0.76,0.91 -1.77,1.79 -2.56,2.68 -1.09,1.24 -2.36,2.35 -3.53,3.53 -0.37,0.37 -0.51,0.47 -0.91,0.8 -0.58,0.49 -1.22,1.2 -1.77,1.76l-12.23 10.76c-0.34,0.29 -0.59,0.51 -0.93,0.78 -1.33,1.05 -2.56,2.09 -3.93,3.12 -4.04,3.02 -8.02,6.04 -12.22,8.83 -4.26,2.84 -8.55,5.5 -12.95,8.11l-4.51 2.55c-1.85,1.13 -7.87,4.23 -9.28,4.83 -0.89,0.38 -1.54,0.72 -2.39,1.15 -2.35,1.19 -4.81,2.2 -7.21,3.26 -12.15,5.33 -24.04,9.05 -36.89,12.27 -7.83,1.96 -21.95,4.48 -30.13,5.04l-6.49 0.57c-2.24,0.06 -4.45,0.35 -6.72,0.34 -1.24,-0 -2.12,0.11 -3.42,0.11 -1.08,0 -2.32,-0.11 -3.37,0.05 -0.18,0.03 -0.37,0.05 -0.55,0.07l-2.31 0c-0.79,-0.05 -1.56,-0.12 -2.31,-0.12 -0.57,0 -1.14,0 -1.71,0l-3.41 -0.12c-0.6,-0.02 -1.23,0.03 -1.83,0.01 -0.61,-0.02 -0.85,-0.13 -1.59,-0.12 -2.14,0.02 -4.53,-0.29 -6.61,-0.45 -6.36,-0.49 -12.64,-1.24 -18.89,-2.28 -11.48,-1.91 -22.77,-4.65 -33.79,-8.32 -4.39,-1.46 -8.65,-3.03 -12.91,-4.74 -0.89,-0.35 -1.63,-0.68 -2.5,-1.02 -0.87,-0.34 -1.66,-0.7 -2.48,-1.05 -0.79,-0.35 -1.63,-0.66 -2.39,-1.03l-3.68 -1.67c-2.34,-1.19 -4.8,-2.24 -7.13,-3.45 -0.39,-0.2 -0.64,-0.38 -1.09,-0.61l-4.63 -2.43c-1.5,-0.76 -2.94,-1.69 -4.44,-2.5 -2.29,-1.25 -4.39,-2.58 -6.63,-3.96 -2.86,-1.75 -5.75,-3.6 -8.47,-5.53l-16.01 -12.09c-0.39,-0.31 -0.63,-0.51 -1.02,-0.82l-9.35 -8.29c-0.37,-0.37 -0.51,-0.47 -0.91,-0.8 -0.91,-0.76 -1.79,-1.77 -2.68,-2.56 -1.15,-1.01 -3.31,-3.21 -4.33,-4.43 -0.49,-0.58 -1.2,-1.22 -1.76,-1.77l-0.85 -0.97c-0.29,-0.31 -0.56,-0.55 -0.86,-0.85 -1.22,-1.21 -2.93,-3.3 -4.21,-4.67 -1.42,-1.52 -2.67,-3.16 -4.04,-4.72l-6.23 -7.88c-3.28,-4.37 -6.54,-8.78 -9.44,-13.43 -0.02,-0.03 -0.07,-0.11 -0.09,-0.14l-0.58 -0.91c-2.36,-3.52 -4.52,-7.23 -6.59,-10.94l-3.15 -5.73c-1.34,-2.65 -4.07,-7.79 -5.18,-10.53 -0.34,-0.83 -0.76,-1.57 -1.11,-2.42 -0.35,-0.86 -0.71,-1.64 -1.07,-2.46 -0.72,-1.65 -1.4,-3.26 -2.09,-4.97 -2.04,-5.09 -3.84,-10.28 -5.59,-15.47 -0.59,-1.77 -1.17,-3.6 -1.67,-5.39l-2.93 -11.06c-2.79,-11.1 -4.52,-22.75 -5.38,-34.23 -0.23,-3.07 -0.57,-6.02 -0.56,-9.11l-0.16 -6.78c-0.03,-0.2 -0.05,-0.4 -0.07,-0.61l0 -3.06c0.02,-0.59 0.12,-0.84 0.12,-1.49 0,-0.57 -0,-1.14 -0,-1.71l0.12 -3.41c0.02,-0.6 -0.03,-1.23 -0.01,-1.83l1.15 -14.67c0.09,-1.04 0.23,-2.08 0.37,-3.16 2.41,-18.28 6.59,-36.29 13.4,-53.41 0.34,-0.85 0.64,-1.66 0.99,-2.54 0.35,-0.89 0.68,-1.63 1.02,-2.5 0.34,-0.87 0.7,-1.66 1.05,-2.48 0.35,-0.79 0.66,-1.63 1.03,-2.39l2.21 -4.85c0.78,-1.88 4.29,-8.65 5.34,-10.59l4.41 -7.77c1.74,-2.91 3.53,-5.87 5.41,-8.7l7.18 -10.34c0.53,-0.7 1,-1.34 1.51,-2.02 2.39,-3.18 4.92,-6.22 7.41,-9.31l2.4 -2.83c1.28,-1.36 2.47,-2.94 3.76,-4.21l2.51 -2.72c0.76,-0.91 1.77,-1.79 2.56,-2.68 0.27,-0.31 0.56,-0.56 0.85,-0.85 1.17,-1.17 2.31,-2.42 3.58,-3.48 0.58,-0.49 1.22,-1.2 1.77,-1.76 0.17,-0.17 0.28,-0.3 0.46,-0.45 0.23,-0.19 0.28,-0.19 0.51,-0.4 2.24,-2.07 5.04,-4.8 7.41,-6.7 0.35,-0.29 0.59,-0.53 0.93,-0.78l3.85 -3.2c5.26,-4.17 10.57,-8.23 16.15,-11.96 0.74,-0.49 1.37,-0.91 2.12,-1.41l2.14 -1.39c3.9,-2.62 8.07,-4.83 12.11,-7.24l5.7 -3.06c2.52,-1.26 6.73,-3.54 9.39,-4.61 0.83,-0.34 1.57,-0.76 2.42,-1.11 0.86,-0.35 1.64,-0.71 2.46,-1.07 3.28,-1.44 6.65,-2.84 10.06,-4.06l7.71 -2.76c4.49,-1.5 9,-2.76 13.57,-4.06 5.72,-1.63 11.28,-2.74 17.2,-3.85 8.19,-1.53 13.76,-2.05 21.69,-2.89l1.69 -0.13c2.83,-0.14 5.46,-0.46 8.31,-0.46 1.24,0 2.12,-0.11 3.42,-0.11 0.54,0 3.09,0.08 3.41,0l0.16 -0.07c0.02,-0.01 0.06,-0.02 0.09,-0.02 0.04,-0.01 0.08,-0.02 0.13,-0.02zm14.19 418.59c0,-5.4 2.44,-9.51 7.17,-11.84 8.37,-4.13 19.36,3.21 17.24,14.73 -0.34,1.83 -1.28,3.77 -2.43,5.2 -1,1.25 -2.69,2.78 -4.19,3.43 -5.26,2.29 -10.14,1.4 -14.23,-2.68 -2.24,-2.23 -3.56,-5.65 -3.56,-8.85zm-1.71 -3.3c-0.78,-0.52 -0.67,-0.57 -1.27,-1.01 -0.5,-0.37 -0.85,-0.64 -1.43,-0.96 -3.54,-1.98 -8.12,-0.97 -10.02,2.81 -1.58,3.14 -0.96,8.3 2.7,10.43 0.98,0.57 2.61,1.02 4.01,0.83 2.2,-0.3 3.57,-0.63 5.46,-2.05l1.45 -1.06c0,0.69 -0.11,0.83 -0.12,1.48 -0.01,0.53 0.01,1.07 0.01,1.6 -0,0.69 -0.11,0.83 -0.12,1.47 -0.01,0.57 0,1.15 0,1.71 -0.97,0.65 -1.67,1.09 -2.92,1.52 -4.9,1.71 -9.83,0.65 -13.5,-2.98 -1.71,-1.69 -3.5,-4.98 -3.5,-8.33l0 -1.59c0,-3.55 1.92,-6.76 3.72,-8.57 0.98,-0.98 2.42,-1.89 3.7,-2.44 4.11,-1.77 8.68,-1.29 12.26,1.11 -0.04,1.5 -0.46,4.5 -0.46,6.03zm31.53 -6.83c0,1.86 1.9,2.19 3.32,2.59 1.58,0.44 3.06,0.85 4.51,1.41 1.35,0.51 2.42,1.07 3.42,2.06 1.44,1.41 1.83,3.55 1.83,5.55 0,2.52 -1.82,4.68 -3.37,5.74 -2.63,1.8 -5.75,1.89 -9.15,1.89 -0.57,0 -0.51,-0.1 -1.02,-0.11l-1.82 -6.03c2.18,0.51 5.66,1.81 8.35,0.38 1.05,-0.56 1.55,-1.22 1.55,-2.43 0,-2.54 -6.84,-3.02 -9.74,-4.94 -3.46,-2.3 -4.29,-6.99 -1.56,-9.88l0.56 -0.57c0.29,-0.26 0.34,-0.35 0.67,-0.58 2.78,-1.92 5.28,-1.77 8.47,-1.77 0.63,0 0.67,0.11 1.25,0.11l1.25 5.46c-1.2,-0.58 -3.79,-1.02 -5.24,-1.02 -1.48,0 -3.3,0.77 -3.3,2.16zm-77.5 21.96c-0.69,-0.16 -0.56,-0.22 -0.98,-0.84l-9.56 -14.11c-0.31,-0.47 -1.3,-1.8 -1.41,-2.23l-0.22 0c-0.09,1 -2.83,12 -2.85,12.75 -0.25,-0.01 -5.12,-0.98 -5.12,-1.25l5.46 -24.13 0.57 0c0.11,0.4 0.4,0.72 0.64,1.07l3.62 5.37c0.69,1.03 6.99,10.5 7.35,10.74 0.01,-0.51 0.22,-1.2 0.32,-1.61 0.33,-1.33 2.41,-10.89 2.64,-11.36 0.84,0.19 1.67,0.36 2.51,0.57l2.61 0.57c-0.12,0.24 -0.28,1.11 -0.35,1.47l-1.06 4.63c-0.89,4.07 -1.98,8.24 -2.81,12.22l-1.35 6.15zm111.76 -30.73l7.85 0c0.29,-1.24 2.21,-6.48 2.28,-7.28 0.36,0.27 0.45,1.07 0.67,1.72l1.2 3.7c0.2,0.59 0.41,1.37 0.64,1.86l7.74 0 -3.06 2.3c-0.29,0.21 -0.51,0.35 -0.8,0.57l-2.41 1.69c0.44,1.91 2.03,5.85 2.39,7.4 -0.84,-0.44 -5.98,-4.44 -6.26,-4.44 -0.22,0 -6.18,4.39 -6.26,4.44 0.04,-0.49 0.41,-1.39 0.55,-1.83l1.84 -5.56c-0.35,-0.09 -4.97,-3.5 -5.59,-3.96 -0.17,-0.13 -0.2,-0.15 -0.39,-0.29 -0.1,-0.07 -0.1,-0.07 -0.2,-0.14 -0.2,-0.16 -0.08,-0.06 -0.19,-0.15zm36.53 -1.48zm-221.59 -4.67l221.59 4.67zm-221.59 -4.67l7.74 0c0.49,-1.02 2.03,-6.94 2.5,-7.28l1.12 3.66c0.38,1.23 0.85,2.34 1.15,3.63l7.74 0c-0.17,0.26 -1.2,0.94 -1.48,1.14 -0.54,0.38 -1.05,0.76 -1.59,1.14 -1.07,0.76 -2.09,1.54 -3.19,2.28l1.78 5.39c0.2,0.68 0.46,1.24 0.61,1.89 -0.32,-0.09 -1.9,-1.28 -2.36,-1.62l-2.31 -1.68c-0.52,-0.37 -1.02,-0.83 -1.59,-1.14l-3.89 2.83c-0.28,0.2 -0.51,0.4 -0.78,0.59 -0.54,0.38 -1.04,0.77 -1.59,1.14 0.14,-0.59 0.39,-1.22 0.58,-1.81l1.81 -5.59c-0.5,-0.33 -1,-0.72 -1.51,-1.11l-3.97 -2.86c-0.17,-0.13 -0.2,-0.15 -0.39,-0.29 -0.1,-0.07 -0.1,-0.07 -0.2,-0.14 -0.2,-0.16 -0.08,-0.06 -0.19,-0.15zm-3.76 -1.48zm-12.41 0l12.41 0zm-12.41 0zm237.75 6.15l-237.75 -6.15zm237.75 6.15c-0.46,-0.12 -2.56,-1.81 -3.14,-2.21 -1.09,-0.75 -2.04,-1.5 -3.12,-2.23 -0.22,0.3 -1.12,0.87 -1.48,1.14 -0.52,0.39 -1.04,0.76 -1.57,1.15 -0.56,0.41 -1.02,0.74 -1.58,1.15 -0.29,0.22 -0.5,0.35 -0.8,0.57 -0.28,0.21 -0.5,0.45 -0.83,0.54l2.39 -7.28c-0.26,-0.39 -1.09,-0.91 -1.52,-1.2l-4.74 -3.46 7.85 0 1.12 -3.66c0.23,-0.68 1.11,-3.2 1.15,-3.74l0.19 0.38c0.06,0.16 0.1,0.31 0.14,0.43l2.06 6.59 7.85 0 -4.67 3.41c-0.54,0.38 -1.04,0.77 -1.59,1.14 0.06,0.66 2.23,6.7 2.28,7.28zm-225.34 -6.15l-5.42 -3.91c-0.28,-0.2 -0.55,-0.45 -0.84,-0.52l-6.15 4.44c0.06,-0.76 2.26,-6.61 2.28,-7.4l-6.15 -4.44 7.62 0 1.24 -3.66c0.15,-0.46 1,-3.35 1.26,-3.74l2.39 7.4 7.63 0 -6.15 4.44c0.02,0.84 2.2,6.48 2.28,7.4zm250.83 -35.28c0,4.98 7.73,0.34 11.38,0.34 1.5,0 2.35,-0.04 3.79,0.65 0.62,0.3 1.32,0.82 1.82,1.26 1.74,1.53 2.02,3.16 2.02,5.38 0,3.03 -2.82,5.98 -5.19,7.56l-2.67 1.66c-0.28,-0.19 -3.93,-3.51 -4.32,-4.1 1.46,-0.12 6.94,-2.24 6.94,-4.78 0,-3.03 -3.18,-1.96 -4.74,-1.44 -4.98,1.67 -8.72,3.02 -12.36,-0.58 -1.93,-1.91 -2.25,-3.46 -2.25,-6.06 0,-1.15 0.6,-2.79 1.03,-3.52l1.44 -1.98c1.2,-1.43 4.66,-4.17 5.95,-4.52 0.26,0.18 0.34,0.3 0.62,0.52l3.83 3.11c0.2,0.16 0.54,0.41 0.67,0.59 -1.59,0.76 -3.88,0.61 -6.8,3.55 -0.46,0.46 -1.17,1.51 -1.17,2.37zm-285.09 4.09c0.31,-0.08 1.06,-0.78 1.34,-1.05 0.27,-0.25 0.37,-0.28 0.63,-0.51l8.65 -7.22c0.42,0.33 0.5,0.54 0.8,0.89l2.7 3.11c-0.15,0.22 -0.93,0.85 -1.2,1.07l-18.54 15.89c-0.67,0.17 -0.4,-2.24 -0.35,-2.58l0.53 -10.97c0.01,-0.49 -0.02,-1 -0.01,-1.49 0.02,-0.58 0.12,-0.7 0.12,-1.36 0,-1.92 0.22,-3.82 0.22,-5.58l-10.7 9.11 -1.29 -1.56c-0.51,-0.6 -2.09,-2.19 -2.24,-2.76 0.49,-0.13 4.21,-3.6 5.01,-4.21l3.67 -3.16c0.26,-0.24 0.37,-0.27 0.63,-0.51l7.46 -6.43c0.3,-0.25 0.39,-0.29 0.68,-0.57 0.42,-0.42 2.26,-1.99 2.59,-2.08 0.46,0.7 0.11,0.76 0.11,2.5 0.01,3.05 -0.48,8.01 -0.46,11.04 0.02,2.25 -0.34,6.01 -0.34,8.42zm297.61 -27.43c0.69,0.36 3.19,2.25 4.1,2.84l2.07 1.46c0.97,0.72 9.88,7.08 10.34,7.19 0.73,-1.09 1.51,-2.1 2.25,-3.21l2.3 -3.28c0.91,0.48 2.24,1.57 3.23,2.23 0.42,0.28 0.68,0.51 1.09,0.73 -0.2,0.38 -0.46,0.71 -0.73,1.09 -0.3,0.42 -0.5,0.72 -0.8,1.14l-3.21 4.53c-0.28,0.41 -0.52,0.74 -0.81,1.13 -0.3,0.4 -0.49,0.73 -0.8,1.14l-6.41 9.07c-0.39,-0.26 -3.91,-2.85 -4.33,-2.96 0.37,-0.56 0.74,-1.06 1.12,-1.61 0.43,-0.63 3.3,-4.49 3.44,-4.99 -0.33,-0.49 -6.87,-4.94 -8.08,-5.8l-8.19 -5.8c0.37,-0.71 2.3,-3.28 2.93,-4.24 0.18,-0.27 0.32,-0.43 0.48,-0.66zm-322.08 15.59c-0.16,-0.59 -2.84,-4.03 -3.3,-4.89l20.83 -14.45c0.52,0.99 3.14,4.29 3.3,4.89 -0.21,0.28 -6.91,4.87 -7.74,5.46l-11.66 8.15c-0.41,0.28 -0.9,0.8 -1.43,0.84zm-8.76 -36.19c0.31,-0.09 1.04,-0.52 1.35,-0.7l9.35 -5.22c2.13,1.43 4.09,3.1 5.64,5.17 1.43,1.91 3.12,5.1 3.12,7.69 0,3.6 -0.49,6.11 -2.61,8.88 -0.15,0.2 -0.2,0.23 -0.37,0.43 -4.02,4.61 -10.74,6.72 -16.52,3.82 -2.19,-1.1 -3.39,-2.15 -4.77,-3.99 -1.98,-2.63 -3.15,-5.54 -3.15,-9.14 0,-1.28 0.38,-1.19 2.57,-2.1l3.24 -1.43c-0.02,0.86 -0.46,1.2 -0.46,4.32 0,4.63 5.1,9.6 11.19,6.98 0.78,-0.34 1.98,-1.12 2.56,-1.65 2.84,-2.64 3.44,-6.03 1.58,-9.5 -0.26,-0.49 -0.64,-1.01 -0.97,-1.42 -0.37,-0.46 -0.83,-0.76 -1.15,-1.23 -1.11,0.59 -2.17,1.22 -3.3,1.82l2.39 4.21c-0.73,0.39 -1.52,0.83 -2.25,1.27 -0.38,0.23 -0.7,0.38 -1.09,0.61 -0.29,0.17 -0.93,0.54 -1.2,0.62 -0.12,-0.53 -2.15,-4 -2.57,-4.72l-2.29 -4.08c-0.14,-0.28 -0.16,-0.41 -0.26,-0.65zm347.91 -7.63c2.76,1.46 5.73,3.31 8.5,4.82l8.61 4.93c1,0.54 1.85,1.04 2.84,1.6 0.51,0.28 0.95,0.56 1.44,0.83 0.28,0.15 0.42,0.25 0.72,0.41 0.43,0.22 0.39,0.12 0.64,0.5 -0.4,0.59 -1.34,0.72 -2.38,1.04l-7.91 2.44c-0.92,0.26 -1.71,0.5 -2.61,0.8l-5.29 1.65c-0.62,0.19 -2.14,0.73 -2.74,0.78 0.31,0.43 11.75,6.78 12.06,6.94 -0.04,0.43 -0.07,0.37 -0.24,0.67l-2.37 4.23c-3.09,-1.64 -8.19,-4.64 -11.39,-6.48l-11.49 -6.49c0.17,-0.72 1,-0.73 2.29,-1.13 0.9,-0.28 1.76,-0.58 2.67,-0.85l14.68 -4.56c0.99,-0.33 1.03,-0.17 1.3,-0.53 -0.4,-0.09 -1.14,-0.59 -1.49,-0.79 -2.92,-1.68 -7.57,-4.39 -10.46,-5.92 0.19,-0.81 2.44,-4.14 2.62,-4.89zm6.94 -2.5c-0.46,-0.01 -4.43,-1.54 -5.01,-1.82l5.57 -14.68 14.83 5.66c0.93,0.38 8.42,3.13 8.85,3.45 -0.12,0.53 -0.42,1.22 -0.63,1.76 -0.26,0.65 -0.44,1.17 -0.7,1.8 -0.5,1.23 -0.91,2.45 -1.38,3.63l-2.75 7.27c-0.52,-0.04 -1.87,-0.65 -2.44,-0.86l-2.46 -0.96 3.03 -7.9c0.17,-0.46 0.34,-0.71 0.39,-1.21 -0.64,-0.31 -1.41,-0.55 -2.13,-0.83 -0.51,-0.2 -1.77,-0.73 -2.2,-0.76l-2.96 7.74 -4.78 -1.82 2.96 -7.85c-1.07,-0.25 -3.89,-1.63 -4.78,-1.71l-3.41 9.11zm-355.54 -14c0.79,-0.06 3.96,-1.74 4.89,-1.82l5.12 12.63c0.18,0.45 0.67,1.45 0.68,1.94l-23.44 9.44c-0.24,-1.03 -5.75,-13.85 -5.8,-14.45l4.78 -1.94c0.19,0.81 3.48,8.39 3.64,9.11 0.39,-0.21 3.94,-1.68 4.33,-1.71l-3.19 -7.85c1.15,-0.27 4.09,-1.8 4.89,-1.82l3.07 7.63 2.28 -0.91c0.37,-0.17 0.76,-0.31 1.13,-0.46 0.41,-0.17 0.79,-0.35 1.25,-0.45 -0.03,-0.39 -0.67,-1.79 -0.88,-2.31 -0.45,-1.13 -2.67,-6.28 -2.76,-7.02zm-7.85 -10.13c0,0.41 0.09,0.64 0.23,0.91 0.23,-0.11 0.83,-0.26 1.13,-0.36 1.11,-0.34 7.92,-2.36 8.43,-2.37 0.21,0.9 0.55,1.83 0.8,2.73 0.13,0.47 0.25,0.91 0.41,1.41 0.13,0.39 0.35,1.06 0.39,1.44l-6.12 1.73c-0.92,0.26 -2.06,0.58 -3,0.87 -4,1.24 -8.16,2.32 -12.15,3.56 -0.46,0.15 -1.04,0.29 -1.51,0.43 -0.53,0.15 -1.08,0.35 -1.58,0.47 -0.15,-1.85 -2.73,-7.33 -2.73,-12.07 0,-0.99 0.37,-2.15 0.69,-2.84 2.11,-4.67 7.95,-5.39 11.29,-2.42 0.41,0.36 0.68,0.76 1.11,1.05 0.42,-0.28 3.56,-4.39 4.19,-5.15l2.06 -2.61c0.35,-0.43 1.67,-2.35 2.18,-2.49 0.04,0.43 0.18,0.78 0.3,1.19l1.43 4.85c0.15,0.65 -0.35,0.91 -1.1,1.87l-6.43 7.8zm368.74 -5.57c0,-3.67 1.09,-7 1.83,-10.57 0.06,-0.3 0.22,-1.15 0.33,-1.37 0.56,0.01 17.38,3.89 18.5,4.14l6.19 1.43c-0.04,0.47 -0.24,1.03 -0.33,1.49l-1 4.46c-0.57,2.68 -1.62,5.66 -3.15,7.78 -0.88,1.22 -0.68,0.93 -1.69,1.95 -1.13,1.15 -2.78,2.21 -4.57,2.71 -3.81,1.08 -8.31,0.15 -11.38,-2.18 -2.91,-2.21 -4.73,-6.21 -4.73,-9.84zm-389 -14.68l25.04 -4.21 0.62 3.82c0.44,2.6 0.69,2.07 -1.53,2.44l-21.15 3.54c-0.56,0.09 -1.38,0.28 -1.95,0.33 -0.05,-0.57 -0.91,-5.68 -1.02,-5.92zm419.27 -14.68l-3.92 -0.52c-1.87,-0.28 -10.49,-1.53 -11.79,-1.53 -3.03,0 -4.95,1.28 -5.41,3.91 -0.96,5.44 4.16,5.9 7.31,6.36l12.44 1.67c-0.02,0.74 -0.26,1.78 -0.35,2.61 -0.1,0.88 -0.33,1.79 -0.33,2.74l-3.99 -0.56c-3.03,-0.42 -9.59,-1.2 -12.15,-1.74 -0.96,-0.2 -2.57,-0.74 -3.35,-1.2 -2,-1.17 -3.58,-2.53 -4.45,-4.77 -1.95,-5.03 0.11,-12.01 4.86,-13.99 3.35,-1.4 6.13,-1.02 9.65,-0.52 1.77,0.25 11.06,1.44 12.27,1.73l-0.71 5.41c0,0 -0.07,0.26 -0.08,0.39zm-400.04 -9.22c0,1 0.07,1.68 0.11,2.62 0.1,2.15 0.57,5.54 0.57,7.74l3.87 1.37c0,1.37 0.46,4.74 0.46,6.03l-20.78 -8.34c-0.15,-0.06 -0.29,-0.13 -0.41,-0.18 -0.32,-0.14 -0.59,-0.24 -0.89,-0.36l-3.4 -1.38c-0.59,-0.24 -1.36,-0.44 -1.61,-0.78 0.12,-0.44 0.46,-0.44 1.39,-1 0.54,-0.33 1.05,-0.58 1.59,-0.91 6.67,-4 13.98,-7.98 20.58,-11.96 0.52,-0.31 1.06,-0.64 1.59,-0.92l0.35 5.46c0.03,0.36 0.1,0.41 0.11,0.8l-2.59 1.39c-0.31,0.19 -0.55,0.35 -0.93,0.43zm21.28 -9.44c0,-92.8 75.3,-168.09 168.09,-168.09l6.38 0.11c0.61,0.01 0.67,0.11 1.24,0.12 0.41,0.02 0.85,-0.02 1.26,-0 0.57,0.02 0.63,0.11 1.24,0.12 4.58,0.04 14.27,1.41 18.78,2.16 8.49,1.41 17.2,3.74 25.14,6.39 3.89,1.3 7.63,2.8 11.38,4.33l5.52 2.45c2.14,1.03 6.75,3.19 8.7,4.39l3.37 1.87c7.63,4.53 12.08,7.42 18.96,12.57 1,0.75 1.96,1.5 2.94,2.29l6.41 5.42c1.35,1.26 2.8,2.44 4.1,3.76 0.31,0.31 0.41,0.36 0.74,0.63l10.87 11.44c3.01,3.39 5.76,7.02 8.49,10.64 0.02,0.03 0.07,0.1 0.09,0.13 0.06,0.09 0.07,0.11 0.13,0.2 0.38,0.52 0.72,0.97 1.1,1.51 4.24,5.9 6.99,10.65 10.63,16.91l4.86 9.59c0.18,0.36 0.24,0.58 0.41,0.95 0.17,0.35 0.3,0.56 0.45,0.91l3.1 7.37c5.08,12.69 8.36,25.98 10.29,39.56 0.11,0.81 0.18,1.57 0.3,2.43 0.11,0.8 0.19,1.61 0.26,2.35l0.69 8.42c0.04,0.43 -0,0.93 0,1.36l0.12 2.5c0,1.77 0.11,3.36 0.11,5.24l-0.11 6.38c-0.01,0.61 -0.11,0.67 -0.12,1.24 -0.02,0.41 0.02,0.85 0,1.26 -0.02,0.57 -0.11,0.63 -0.12,1.24 -0.02,2.53 -0.35,4.82 -0.57,7.28 -0.59,6.83 -1.91,13.68 -3.36,20.31 -2.15,9.77 -5.23,18.65 -8.94,27.7l-7.27 15.04c-2.08,4.03 -4.91,8.5 -7.42,12.27 -3.47,5.2 -6.18,8.69 -10.04,13.63l-1.8 2.18c-0.27,0.3 -0.38,0.46 -0.63,0.74 -1.22,1.37 -2.38,2.86 -3.7,4.16l-12.57 12.35c-2.13,1.8 -4.2,3.71 -6.41,5.43 -0.98,0.77 -1.93,1.53 -2.94,2.3 -0.52,0.39 -0.96,0.75 -1.48,1.14 -3.54,2.65 -7.18,5.16 -10.92,7.52 -2.92,1.84 -6.02,3.58 -9.02,5.32 -3.1,1.8 -6.39,3.26 -9.59,4.86 -3,1.5 -6.12,2.73 -9.23,3.97 -5.13,2.05 -10.3,3.81 -15.63,5.31 -6.99,1.96 -14.35,3.65 -21.65,4.65 -0.73,0.1 -1.53,0.22 -2.29,0.33l-4.78 0.56c-0.78,0.07 -1.65,0.2 -2.38,0.24 -1.59,0.09 -3.28,0.35 -4.89,0.34l-3.64 0.23c-0.43,0.02 -0.93,-0 -1.37,-0 -1.8,0 -3.35,0.11 -5.24,0.11l-6.38 -0.11c-0.61,-0.01 -0.67,-0.11 -1.24,-0.12 -0.41,-0.02 -0.85,0.02 -1.26,0 -0.57,-0.02 -0.63,-0.11 -1.24,-0.12 -2.51,-0.02 -4.83,-0.36 -7.28,-0.57 -0.76,-0.07 -1.56,-0.15 -2.36,-0.26 -1.48,-0.2 -3.19,-0.4 -4.62,-0.61 -14.93,-2.19 -27.23,-5.81 -41.04,-11.43l-5.52 -2.45c-2.32,-1.11 -4.72,-2.22 -6.98,-3.49l-5.09 -2.76c-5.18,-3.07 -10.36,-6.13 -15.17,-9.75l-8.18 -6.28c-1.31,-1.02 -2.64,-2.07 -3.83,-3.2l-4.61 -4.17c-0.24,-0.24 -0.39,-0.39 -0.63,-0.63 -0.31,-0.31 -0.41,-0.36 -0.74,-0.63l-5.3 -5.29c-0.25,-0.28 -0.29,-0.4 -0.57,-0.68l-1.94 -2.05c-1.77,-1.74 -3.25,-3.72 -4.9,-5.57 -2.67,-3 -5.07,-6.28 -7.41,-9.54 -2.05,-2.85 -4.02,-5.7 -5.89,-8.67 -1.84,-2.92 -3.58,-6.02 -5.32,-9.02l-5.28 -10.54c-0.17,-0.35 -0.3,-0.56 -0.45,-0.91l-5.93 -15.01c-0.89,-2.67 -1.71,-5.22 -2.48,-7.98 -0.75,-2.67 -1.56,-5.57 -2.17,-8.42 -1.42,-6.66 -2.72,-13.47 -3.37,-20.3 -0.31,-3.24 -0.65,-6.56 -0.69,-9.78l-0.12 -2.5c0,-1.78 -0.11,-3.36 -0.11,-5.24zm373.86 -14.68l0 -1.14c1.88,0 3.42,-0.11 5.35,-0.11 -0.24,0.61 -0.13,3.09 -0.12,4.1 0.01,0.63 0.11,0.72 0.12,1.35 0.02,1.85 0,3.73 -0,5.58 0,1.04 0.12,1.63 0.11,2.62l0.11 8.42 -5.24 0.11c0,-2.34 -0.15,-4.4 -0.11,-7.06 0.03,-1.63 -0.14,-0.9 -2.39,-0.91 -6,-0.02 -11.88,0.22 -17.76,0.22l0 -3.19c0,-1.11 -0.11,-1.76 -0.11,-2.85 6.82,0 13.36,-0.23 20.15,-0.23 0,-2.44 -0.11,-4.49 -0.11,-6.94zm-393.67 -10.81c0,1.47 -1.19,8.15 -1.37,10.24 0.54,0.36 1.11,0.7 1.69,1.05 0.42,0.26 1.32,0.89 1.73,1 0,1.43 -0.67,4.49 -0.8,6.03l-19.56 -13.22c-0.49,-0.33 -4.22,-2.96 -4.57,-3.05 0.05,-0.59 0.09,-0.39 1.44,-0.84l26.22 -8.49c-0.01,0.37 -0.12,0.88 -0.18,1.3l-0.54 4.02c-0.08,0.61 0.07,0.81 -0.48,1l-3.58 0.97zm376.37 -3.19c0,2.04 0.24,4.89 2.84,4.89 1.75,0 3.11,-3.67 3.71,-5.17 1.15,-2.88 2.14,-5.48 5.25,-6.81 2.93,-1.25 6.22,-0.31 8.13,2.3 1.75,2.38 2.07,5.74 1.64,8.85 -0.09,0.68 -0.3,1.47 -0.3,2.09l-5.8 0.8c0.11,-0.47 0.29,-0.83 0.46,-1.25 0.55,-1.38 1.02,-3.06 1.02,-4.67 0,-1.49 -0.74,-3.07 -2.16,-3.07 -1.77,0 -2.25,1.81 -2.78,3.14 -1,2.49 -2.07,5.99 -4.13,7.81 -2.93,2.61 -8.47,2.31 -11.17,-1.3 -2.18,-2.91 -2.28,-6.45 -1.94,-10.1 0.06,-0.61 0.22,-1.15 0.22,-1.83l6.6 -1.37c-0.19,0.39 -0.34,0.85 -0.52,1.3 -0.52,1.29 -1.07,2.93 -1.07,4.39zm-376.59 -24.13c1.61,0 3.43,0.58 4.65,1.39 2.41,1.58 3.43,4.22 3.43,7.15 0,3.34 -1.78,6.54 -2.96,8.76 -0.8,-0.07 -1.69,-0.26 -2.57,-0.39 -5.1,-0.75 -4.2,-0.33 -3.33,-1.41 1.38,-1.72 2.9,-3.27 3.33,-5.77 0.53,-3 -1.3,-5.03 -4.02,-3 -0.5,0.37 -0.85,0.76 -1.3,1.21l-2.44 2.56c-1.84,1.83 -3.56,3.5 -6.52,3.5 -2.21,0 -3.8,-0.78 -4.93,-1.91 -3.06,-3.08 -2.18,-7.58 -0.59,-11.12 0.18,-0.41 0.27,-0.52 0.46,-0.9l0.95 -1.79c0.63,0.02 4.85,1.17 5.8,1.25 -0.82,1.23 -2.66,2.44 -3.57,5.19 -0.96,2.87 1.34,5.69 4.58,1.62l2.04 -2.28c1.73,-1.96 4.18,-4.07 6.97,-4.07zm369.43 -7.85c0,4.28 1.54,4.81 1.82,6.03 1.18,-0.27 2.47,-0.86 3.64,-1.14 -0.26,-1.11 -1.35,-3.94 -1.37,-4.67 0.6,-0.05 1.69,-0.52 2.37,-0.7l2.41 -0.78 1.62 5.1c0.22,0.8 1.52,4.59 1.57,5.15 -0.76,0.36 -2.02,0.65 -2.92,0.95 -1.01,0.34 -1.92,0.61 -2.93,0.94l-5.88 1.86c-0.96,-1.44 -2.14,-2.06 -4.02,-5.43 -2.17,-3.89 -2.78,-8.85 -0.69,-13.05 1.93,-3.87 5.46,-6.44 9.8,-7.28 3.37,-0.65 6.51,-0.22 9.31,1.44 1.85,1.09 2.93,2.14 4.17,3.8 0.29,0.39 0.47,0.77 0.73,1.2 1.67,2.78 2.3,6.5 1.74,9.72 -0.09,0.51 -0.31,1.21 -0.33,1.72l-6.26 1.25c1.43,-2.71 2.11,-5.82 0.8,-8.76 -0.54,-1.21 -1.41,-2.33 -2.45,-3.12 -0.35,-0.26 -0.81,-0.57 -1.19,-0.74 -5.55,-2.59 -11.95,1.7 -11.95,6.48zm-377.05 -7.17c0,2.04 1.92,2.71 3.74,1.35 3.56,-2.65 8.06,-8.96 14.42,-4.72 4.09,2.72 4.17,7.78 2.02,12.06 -1.24,2.48 -1.26,2.16 -2.77,4.4l-6.49 -1.82c1.87,-1.62 3.32,-2.65 4.52,-5.04 0.64,-1.28 1.1,-2.94 0.2,-4.23 -1.65,-2.4 -5.59,1.17 -7.19,2.7 -0.56,0.53 -1.98,1.6 -2.69,1.98 -3.82,2.04 -8.1,1.07 -9.94,-2.61 -1.54,-3.09 -0.47,-7.03 1.28,-9.69l1.98 -2.8 2.69 0.96c0.47,0.19 0.86,0.3 1.33,0.49 0.5,0.2 0.93,0.37 1.44,0.49 -0.1,0.38 -0.02,0.16 -0.29,0.4 -1.59,1.42 -4.26,3.57 -4.26,6.09zm5.35 -21.51c0,-2.82 0.11,-4.07 1.33,-6.63l2.84 -3.65c3.43,-2.89 7.65,-4.17 12.22,-2.82 1.64,0.48 3.04,1.13 4.43,2.06 5.07,3.39 7.16,9.36 5.19,15.21 -0.17,0.51 -0.34,0.77 -0.51,1.19 -1.44,3.58 -5.36,6.29 -9.17,7 -1.96,0.36 -3.93,0.28 -5.76,-0.18 -1.46,-0.37 -3.24,-1.14 -4.5,-1.98 -1.87,-1.26 -3.67,-3.09 -4.68,-5.11 -0.59,-1.17 -1.4,-3.4 -1.4,-5.08zm369.31 5.57l9.15 -4.85c0.67,-0.33 2.65,-1.52 3.15,-1.63l2.61 4.89c-0.64,0.15 -10,5.31 -11.61,6.15l-11.61 6.14c-0.28,-0.53 -0.21,-0.53 -0.02,-1.15 0.15,-0.46 0.24,-0.89 0.36,-1.35l4.33 -16.16c0.12,-0.46 0.22,-0.89 0.35,-1.35 0.1,-0.34 0.29,-0.97 0.33,-1.38 -0.52,0.28 -0.99,0.5 -1.48,0.79l-7.66 4.06c-0.67,0.33 -2.65,1.52 -3.15,1.63 -0.12,-0.51 -0.37,-0.79 -0.61,-1.22l-1.9 -3.68 23.1 -12.29c0.07,0.47 0.13,0.02 0.17,0.46l-5.52 20.94zm-20.94 -14.22c-0.44,-0.66 -3.08,-4.61 -3.19,-5.01l21.17 -13.77 3.3 5.01 -11.93 7.76c-0.47,0.31 -0.84,0.53 -1.32,0.84 -0.48,0.31 -0.83,0.56 -1.3,0.87 -0.48,0.32 -0.93,0.58 -1.39,0.89 -0.4,0.27 -4.99,3.32 -5.35,3.42zm-326.98 -19.24l0 1.14c0,5.94 9.78,11.13 14.21,4.54 0.68,-1.02 1.04,-1.66 1.44,-3 0.32,-1.1 0.52,-2.56 0.52,-3.92 0,-0.58 -0.11,-0.52 -0.11,-1.02 0.28,-0.06 0.13,-0.12 0.69,0.34 0.55,0.45 4.17,3.43 4.55,3.53 0,6.93 -5.96,13.09 -12.86,13.09 -4.5,0 -8.3,-1.91 -11.07,-5.2 -0.68,-0.81 -1.16,-1.46 -1.67,-2.43l-0.93 -2.37c-0.8,-2.71 -0.54,-5.91 0.5,-8.52 0.51,-1.26 1.09,-2.18 1.91,-3.22 0.66,-0.84 1.67,-1.93 2.57,-2.55 0.59,-0.41 2.78,-1.77 3.35,-1.77 0.74,0 -0.12,-0.19 0.67,0.47 0.27,0.22 0.35,0.26 0.61,0.53l2.45 2.1c0.43,0.4 0.86,0.65 1.17,1.11 -0.95,0.02 -2.25,0.52 -2.97,0.78 -0.75,0.27 -1.77,0.93 -2.34,1.41 -1.05,0.89 -2.65,3.13 -2.65,4.97zm10.24 -21.85c0.02,0.02 0.06,0.02 0.07,0.05l2.3 2.02c0.44,0.35 0.73,0.63 1.17,0.99 0.4,0.33 0.81,0.71 1.2,1.07 0.24,0.21 0.32,0.22 0.57,0.46 0.27,0.25 0.34,0.3 0.62,0.52l4.74 4.13c1.44,1.15 7.97,7.03 8.44,7.15 -0.14,0.5 -3.42,3.99 -3.87,4.67l-4.78 -4.1c-0.25,-0.19 -0.31,-0.27 -0.54,-0.48l-3.69 -3.14c-0.24,-0.2 -0.33,-0.33 -0.6,-0.54l-3.56 -3.04c-0.43,-0.36 -0.78,-0.71 -1.2,-1.07l-4.86 -4.13c0.46,-0.69 3.55,-4.26 3.98,-4.55zm314.34 3.53l4.1 -3.19 3.39 4.35c1.19,1.44 2.22,2.88 3.41,4.33 0.31,0.38 0.54,0.71 0.85,1.09 0.31,0.39 0.54,0.68 0.85,1.09 0.57,0.76 1.11,1.4 1.71,2.16l2.54 3.27c0.16,0.2 0.3,0.37 0.46,0.56 0.28,0.33 0.31,0.18 0.35,0.67 -0.4,0.11 -0.2,0.06 -0.49,0.3l-3.61 2.77c-0.38,-0.57 -4.58,-5.98 -5,-6.26 -0.29,0.19 -0.65,0.52 -0.95,0.76l-11.81 9.24c-0.46,0.37 -2.68,2.19 -3.06,2.29l-1.78 -2.31c-0.31,-0.39 -1.65,-2.01 -1.74,-2.35 0.24,-0.35 0.58,-0.54 0.91,-0.8 0.32,-0.24 0.61,-0.49 0.94,-0.76 0.68,-0.55 1.31,-0.99 1.98,-1.54l5.87 -4.61c0.5,-0.41 5.59,-4.48 6,-4.59 -0.11,-0.42 -2.13,-2.86 -2.44,-3.25 -0.56,-0.72 -2.03,-2.42 -2.46,-3.24zm-302.61 -17.07c0.3,0 2.96,1.07 3.41,1.25l6.76 2.57c1.14,0.46 2.28,0.89 3.38,1.29l13.53 5.13 -3.28 3.21c-0.45,0.4 -0.82,0.6 -1.17,1.11l-2.91 -1.19c-0.33,-0.14 -0.68,-0.27 -0.96,-0.41l-3.67 3.61c-0.42,0.35 -0.58,0.47 -0.96,0.86 -0.33,0.33 -0.57,0.59 -0.91,0.91 -0.35,0.34 -0.6,0.48 -0.97,0.85 -0.32,0.33 -0.64,0.57 -0.88,0.94 0.3,1.29 0.96,2.48 1.25,3.76 -0.25,0.37 -0.65,0.75 -1.01,1.04 -0.71,0.57 -2.78,2.7 -3.31,3.06l-2.16 -6.94c-0.62,-2.26 -1.52,-4.75 -2.17,-7.06l-4.04 -13.16c-0.07,-0.24 -0.35,-0.84 0.06,-0.84zm279.06 13.54c0,1.24 0.81,2.44 1.44,3.11 1.81,1.89 4.06,2.03 6.2,0.67 0.75,-0.47 1.22,-0.98 1.83,-1.59l1.65 -1.77c0.59,-0.61 1.14,-1.06 1.67,-1.74 0.47,-0.61 1.15,-1.16 1.69,-1.72 0.32,-0.33 0.44,-0.56 0.79,-0.91l4.19 -4.35 3.33 3.15c0.25,0.21 0.36,0.24 0.54,0.49 -0.27,0.41 -0.64,0.69 -1,1.05l-3.02 3.24c-0.37,0.37 -0.66,0.65 -1.03,1.02l-3.02 3.24c-2.4,2.39 -4.61,5.26 -8.48,6.09 -6.74,1.45 -12.72,-5.25 -12.72,-9.87 0,-2.92 0.56,-4.65 2.26,-6.96l11.51 -12.39c0.25,0.17 0.31,0.28 0.56,0.47l3.77 3.63c-0.34,0.23 -0.59,0.5 -0.86,0.85 -0.31,0.4 -0.47,0.55 -0.82,0.89 -0.31,0.31 -0.55,0.54 -0.85,0.85l-1.65 1.77c-0.36,0.36 -0.48,0.55 -0.8,0.91l-3.36 3.47c-0.35,0.34 -0.46,0.57 -0.8,0.91 -1.33,1.34 -3.04,3.22 -3.04,5.49zm-7.4 -14c-1.87,0 -3.32,-0.52 -4.63,-1.17 -0.39,-0.19 -0.52,-0.29 -0.85,-0.51l-2.59 -1.85 -1.4 1.79c-0.52,0.63 -0.96,1.23 -1.44,1.86l-1.4 1.78c-0.28,0.33 -0.43,0.55 -0.7,0.9 -0.27,0.35 -0.52,0.62 -0.75,0.96l-2.29 -1.8c-0.81,-0.6 -1.56,-1.29 -2.37,-1.84 0.13,-0.49 4.2,-5.52 4.78,-6.26l6.84 -8.74c0.29,-0.39 3.74,-4.58 3.85,-5.02l2.34 1.76c0.3,0.23 0.46,0.37 0.76,0.6 0.56,0.42 0.97,0.79 1.53,1.2 2.43,1.8 5.84,4.8 5.84,8.05 0,2.7 -0.32,4.12 -2.36,6.18 -1.13,1.13 -2.93,2.13 -5.15,2.13zm-248.44 -11.61c0.13,0.55 1.09,1.57 1.46,2.06 1.93,2.59 4.31,5.39 6.19,7.92l3.09 3.96c0.53,0.68 1.09,1.3 1.55,1.98 -0.23,0.15 -0.34,0.28 -0.57,0.46 -0.19,0.14 -0.39,0.28 -0.58,0.44 -0.4,0.32 -0.73,0.61 -1.14,0.91 -0.42,0.31 -0.73,0.58 -1.16,0.89 -0.44,0.33 -0.79,0.66 -1.22,0.94 -0.3,-0.23 -0.59,-0.65 -0.8,-0.91l-3.84 -4.92c-0.28,-0.33 -0.49,-0.59 -0.76,-0.95l-0.8 -1.01c-1.37,-1.88 -3.21,-4.02 -4.6,-5.89 -0.26,-0.36 -0.47,-0.59 -0.75,-0.96 -0.36,-0.48 -0.65,-0.73 -0.74,-1.07 -0.4,0.03 -0.59,0.25 -0.88,0.49l-4.84 3.81c-0.26,0.22 -0.55,0.5 -0.89,0.59 -0.18,-0.67 -2.85,-3.39 -3.07,-4.21 0.77,-0.52 1.43,-1.11 2.2,-1.67l15.22 -11.87 3.19 4.21c-0.33,0.09 -1.26,0.9 -1.58,1.15l-3.07 2.39c-0.57,0.43 -1.02,0.84 -1.61,1.24zm7.63 -11.72c0.37,-0.1 4.61,-2.92 5,-3.19l12.93 19.85c0.22,0.37 0.76,1.11 0.84,1.43 -0.82,0.55 -1.64,1.06 -2.48,1.61 -0.44,0.3 -0.8,0.51 -1.25,0.8 -0.37,0.24 -0.87,0.67 -1.28,0.78 -4.03,-6.01 -8.03,-12.48 -12.06,-18.55l-1.7 -2.74zm14.91 -1.59c0,-5.59 2.48,-9.7 7.25,-12.1 4.16,-2.1 9.6,-1.48 13.35,1.4 3.04,2.33 5.57,6.74 5.57,10.7 0,2.83 -0.19,3.63 -1.2,6.08 -0.55,1.35 -1.57,2.67 -2.52,3.62 -0.54,0.54 -1.02,0.97 -1.65,1.42 -4.53,3.25 -10.54,2.96 -14.99,-0.2l-1.82 -1.59c-0.26,-0.33 -0.48,-0.5 -0.75,-0.85 -0.28,-0.36 -0.45,-0.64 -0.72,-0.99 -0.46,-0.62 -0.82,-1.37 -1.19,-2.11 -0.63,-1.26 -1.33,-3.55 -1.33,-5.39zm204.29 22.76c-0.46,-0.11 -4.55,-2.61 -5.01,-2.73l2.92 -8.35c0.31,-0.94 0.73,-1.85 0.95,-2.8l-5.37 3.28c-0.9,0.58 -1.74,1.1 -2.67,1.65l-4.05 2.44c-0.51,0 -0.31,-0.77 -0.31,-1.8 0,-1.55 -0.11,-2.75 -0.11,-4.21 0,-2.92 0,-5.84 0,-8.76l-5.31 6.18c-0.23,0.27 -0.26,0.35 -0.52,0.62l-0.95 1.1c-0.35,0.44 -0.67,0.76 -0.96,1.2l-4.67 -2.62c0.59,-0.87 0.59,-0.68 1.03,-1.25l9.31 -10.71c0.2,-0.26 0.39,-0.39 0.6,-0.65l5.49 -6.34c0.49,-0.63 0.84,-1.1 1.32,-1.19 0,0.02 0.01,0.03 0.01,0.06l0.22 19.28 8.16 -5.04c1.42,-0.85 2.67,-1.67 4.08,-2.52 0.74,-0.44 1.32,-0.8 2.05,-1.25l1.48 -0.93c0.44,-0.24 0.08,-0.18 0.62,-0.05 -0.05,0.63 -0.79,2.54 -1.01,3.2 -0.35,1.06 -0.68,2.16 -1.02,3.19l-6.28 18.99zm-36.42 -18.32c-2.79,0 -5.22,-0.91 -7.26,-2.3 -0.76,-0.52 -1.13,-0.92 -1.76,-1.54 -5.14,-5.13 -4.76,-12.93 -0.1,-18.71l1.72 -1.58c1.91,-1.46 4.59,-2.73 7.29,-2.73 4.06,0 6.94,0.98 9.76,3.78 3.82,3.8 4.7,9.82 2.46,14.81 -0.2,0.45 -0.3,0.75 -0.53,1.17 -0.75,1.39 -1.13,1.78 -2.11,3.02l-1.77 1.53c-2.07,1.5 -4.82,2.55 -7.69,2.55zm-86.5 -37.56c2.48,0 4.07,0.18 6.3,1.32 1.37,0.7 2.55,1.65 3.57,2.69 2.13,2.15 3.56,5.87 3.56,8.96 0,3.68 -0.39,5.65 -2.5,8.65 -1.99,2.83 -5.8,5.16 -9.22,5.24 -0.43,0.01 -0.67,-0 -1.1,0.05 -1.78,0.22 -5.17,-0.88 -6.65,-1.87 -3.24,-2.17 -5.11,-4.75 -5.99,-8.58l-0.39 -3.26c0,-0.55 0.11,-0.56 0.12,-1.14 0.19,-6.13 5.71,-12.06 12.29,-12.06zm-38.58 7.96c0.64,-0.05 4.32,-1.38 5.23,-1.59l6.39 20.36c0.34,1.07 1.4,4.02 1.46,4.79 -0.64,0.06 -0.07,0.21 -1.28,-0.31l-3.69 -1.78c-3.96,-1.98 -8.56,-3.98 -12.48,-5.96 -0.46,-0.23 -0.79,-0.34 -1.26,-0.57 -0.45,-0.22 -0.85,-0.5 -1.33,-0.61l3.09 9.89c0.2,0.64 0.97,2.84 1.01,3.31 -0.45,0.11 -0.83,0.26 -1.3,0.41 -0.48,0.16 -0.85,0.24 -1.31,0.4 -0.59,0.2 -1.99,0.73 -2.63,0.78 -0.12,-0.53 -0.32,-1.01 -0.5,-1.55 -0.19,-0.56 -0.3,-1.01 -0.48,-1.57 -0.36,-1.07 -0.64,-2.03 -1,-3.1l-5.87 -18.71c0.3,-0.07 0.21,-0.11 0.45,-0.11 0.2,0 8.87,4.21 9.79,4.67 0.39,0.19 0.76,0.31 1.18,0.53 0.44,0.22 0.8,0.4 1.21,0.61 0.81,0.41 1.62,0.76 2.47,1.18 0.85,0.43 1.61,0.75 2.46,1.18 0.84,0.42 1.67,0.76 2.46,1.17 -0.03,-0.39 -0.34,-1.28 -0.47,-1.69 -0.17,-0.52 -0.39,-1.11 -0.53,-1.63 -0.17,-0.63 -0.32,-1.03 -0.52,-1.64 -0.43,-1.3 -2.56,-7.87 -2.57,-8.47zm109.55 6.13c-0.51,-0.36 -0.97,-1.78 -2.88,-3.2 -3.32,-2.47 -7.6,-2.3 -10.36,0.98 -2.17,2.57 -2.7,7.13 -0.69,10.08 0.18,0.26 0.2,0.27 0.4,0.51 2.63,3.24 7.3,3.03 10.95,1.54 0.42,-0.17 0.78,-0.43 1.27,-0.56 -0.18,0.37 -0.27,0.84 -0.41,1.29l-1.33 4.7c-0.19,0.6 -0.48,0.59 -1.74,0.88 -3.64,0.83 -7.54,0.24 -10.59,-1.8 -6.7,-4.5 -7.65,-13.43 -2.87,-19.85 0.29,-0.39 0.51,-0.57 0.78,-0.93 0.35,-0.46 0.42,-0.41 0.82,-0.77 3.98,-3.53 9.44,-4.34 14.39,-2.04 1.34,0.63 3.5,2.04 4.25,3.15l-1.98 6.02zm-36.26 -10l0 1.14 -9.79 -0.11 0 5.12 8.65 0.14 0 4.98 -5.8 0c-0.48,0 -2.54,-0.16 -2.71,-0.09 -0.43,0.16 -0.25,1.68 -0.25,2.6 0,1.08 -0.12,1.69 -0.11,2.73l0 4.67 -6.03 0c0,-1.04 0.11,-1.91 0.11,-3.07 0,-5.31 0.23,-10.78 0.23,-15.93l-0 -4.79c0.01,-0.65 0.12,-0.86 0.12,-1.59 1.43,0 2.44,0.11 3.87,0.11 1.33,0 2.66,0 3.98,0 1.43,0 2.44,0.11 3.87,0.11 1.33,0 2.66,0 3.98,0 0,1.46 -0.11,2.51 -0.11,3.98z"/>
   <path class="fil1" d="M307.4 145.79c-0.35,0 -0.75,-0.19 -1.06,-0.31 -0.72,-0.28 -2.75,-0.72 -3.5,-0.72 -0.74,0 -1.33,0.34 -2.17,0.34 -0.62,0 -1.14,-0.74 -1.5,-1.11 -1.23,-1.24 -3.3,-2.69 -5.07,-2.89 -1.54,-0.17 -2.81,-0.71 -4.16,-1.19 -1.33,-0.47 -2.68,-0.95 -4.39,-0.95l-13.2 0c-1.56,0 -2.8,0.22 -3.89,0.67 -3.76,1.53 -3.62,1.16 -7.51,1.7 -1.41,0.2 -2.57,0.47 -3.59,1.07 -1.35,0.81 -4.55,4.26 -5.72,5.77l-2.07 2.48c-1.17,1.2 -2.44,0.82 -4.07,0.82 -1.85,0 -5.26,0.02 -7.01,-0.39 -2.33,-0.54 -4.03,0.11 -6.04,-0.56 -1.36,-0.46 -3.63,-1.07 -4.76,-1.84 -1.19,-0.81 -2.49,-2.9 -3.93,-2.9 -1.7,0 -1.55,0.46 -2.65,-0.65 -0.61,-0.62 -1.05,-1.26 -1.71,-1.81 -0.31,-0.26 -0.65,-0.54 -0.99,-0.72 -1.14,-0.58 -2.21,-1.62 -3.53,-1.93 -0.02,1.14 -0.96,2.87 -1.44,3.68 -1.28,2.15 -3.4,3.67 -5.61,4.74 -1.13,0.55 -2.66,1.08 -3.87,1.37 -0.69,2.96 -3.19,9.69 -3.19,12.06 0,0.59 1.92,4.07 2.31,4.85 0.83,1.65 5.24,10.38 6.13,11.85 0.93,1.52 2.8,5.29 3.77,7.04l2.59 4.7c0.72,1.26 4.84,8.54 5.91,8.54 0.44,0 0.54,-0.19 0.87,-0.38 0.33,-0.19 0.56,-0.27 0.9,-0.47l7.57 -4.16c0.3,-0.17 0.6,-0.29 0.9,-0.46l20.3 -11.11c1.13,-0.6 2.41,-1.05 3.04,-2.2 0.16,-0.3 0.31,-0.5 0.45,-0.8 0.15,-0.32 0.26,-0.6 0.42,-0.95 0.57,-1.23 0.96,-2.52 1.45,-3.78l2.74 -7.64c-0.14,-0.85 -4.27,-2.89 -4.27,-9.48 0,-5.63 5.12,-11.04 10.7,-11.04 2.25,0 3.91,0.19 5.81,1.14 1.8,0.91 3.35,2.18 4.43,3.88 0.39,0.61 0.63,1.04 0.95,1.78 1,2.26 1.21,5.07 0.58,7.6 -0.66,2.62 -2.26,4.7 -4.32,6.26 -2.16,1.63 -5.38,2.38 -8.23,2.1 -1.01,-0.1 -1.89,-0.65 -2.86,-0.67 -0.09,0.39 -0.97,2.41 -1.23,3.33 -1.03,3.72 -2.1,7.72 -4.08,10.94 -0.32,0.53 -0.82,0.61 -1.37,0.91l-2.96 1.59c-0.34,0.19 -0.44,0.28 -0.8,0.46 -0.29,0.15 -0.48,0.22 -0.76,0.38l-3.68 2.01c-3.15,1.55 -6.61,3.58 -9.75,5.28l-15.78 8.46c0.19,0.82 3.57,7.24 4.02,8.16 0.69,1.38 1.34,2.67 2.01,4.02 0.28,0.56 1.93,3.59 2.05,4.1 0.89,-0.2 8.42,-4.56 9.83,-5.31 0.26,-0.14 0.42,-0.2 0.68,-0.34l11.08 -6.11c0.26,-0.15 0.41,-0.19 0.67,-0.35l7.94 -4.35c0.46,-0.26 0.89,-0.48 1.33,-0.72 3.45,-2 7.03,-3.82 10.51,-5.76l23.57 -12.96c0.26,-0.16 0.41,-0.21 0.67,-0.35 2.12,-1.18 5.3,-2.8 7.27,-4l2.56 -1.42c0.26,-0.15 0.42,-0.2 0.68,-0.34l4.63 -2.54c0.76,-0.42 1.9,-1.22 2.7,-1.41 0,-0.94 -0.68,-2.57 -0.68,-4.21 0,-9.82 11.48,-15.25 19.37,-8.33 0.73,0.64 1.3,1.46 1.81,2.28 1.98,3.15 2.29,7.6 0.59,10.99 -1.85,3.67 -5.47,6.45 -9.83,6.45 -2.18,0 -4.34,-0.37 -6.01,-1.39 -0.97,-0.59 -1.96,-1.22 -2.72,-2.06 -0.2,-0.21 -0.57,-0.67 -0.71,-0.89 -0.44,0.24 -0.81,0.46 -1.25,0.69 -2.27,1.11 -4.38,2.46 -6.64,3.6l-11.87 6.45c-0.49,0.26 -0.8,0.45 -1.33,0.72l-3.91 2.13c-0.3,0.16 -0.34,0.22 -0.64,0.38l-8.57 4.63c-1.77,0.95 -3.58,1.85 -5.3,2.9 -0.87,0.53 -1.78,0.91 -2.66,1.44 -3,1.8 -6.2,3.23 -9.2,5.02 -2.14,1.28 -4.4,2.32 -6.56,3.57l-14.52 7.89c-0.26,0.15 -0.42,0.2 -0.68,0.34l-11.19 6.11 7.02 13.69c0.46,0.91 2.15,3.93 2.31,4.63 0.57,-0.13 2.06,-0.97 2.69,-1.29 2.01,-1 9.62,-5.06 11.01,-5.26 3.46,-0.53 7.8,0.52 11.45,0.52 0,-2.3 2.15,-5.58 3.82,-6.88 1.19,-0.93 1.85,-1.41 3.35,-2 4.07,-1.62 8.96,-0.52 12.09,2.47 0.9,0.85 1.71,1.99 2.25,3.1 0.97,1.98 1.14,3.64 1.14,5.92 0,1.61 -0.58,2.97 -1.07,4.16 -0.22,0.54 -0.68,1.22 -0.98,1.64 -1.87,2.64 -5.17,4.78 -8.54,4.78 -2.19,0 -3.83,-0.16 -5.77,-1.06 -2.28,-1.06 -4.15,-2.97 -5.27,-5.2 -0.45,-0.9 -1.14,-2.78 -1.14,-4.1 -1.04,-0.09 -2.05,-0.28 -3.18,-0.35 -3.17,-0.18 -7.61,-0.69 -10.36,0.92 -1.33,0.78 -2.81,1.4 -4.25,2.12 -0.38,0.19 -0.64,0.27 -1.03,0.45 -0.4,0.19 -0.66,0.33 -1.06,0.53 -1.7,0.86 -5.5,2.3 -5.5,4.29 0,0.41 0.3,0.83 0.48,1.12l1.12 2.07c1.42,2.88 3.16,5.62 4.59,8.5l6.36 11.74c0.83,1.37 1.49,2.9 2.32,4.28l1.72 3.17c1.07,2.15 1.91,3.13 4.25,1.9 0.15,0.54 1.26,1.48 1.7,1.83 5.93,4.51 6.57,-5.25 8.43,-6.49 0.57,0.39 0.72,1.18 0.89,1.84 0.2,0.8 0.34,1.49 0.51,2.34 0.09,0.47 0.08,0.64 0.31,1.05 0.42,0.75 0.49,1.32 0.67,2.18 0.11,0.54 0.26,0.69 0.35,1.12 1.59,-1.06 1.52,-1.43 3.67,-2.36 4.31,-1.85 9.46,-1.56 13.24,1.27l1.76 1.43 0.68 -0.35c0,-3.34 -0.93,-5.19 1.69,-7.3 0.96,-0.77 1.85,-1.69 2.86,-2.37 0,-2.01 -0.22,-3.67 0.68,-5.46 1.49,-2.94 3.24,-3.11 3.52,-5.81 0.12,-1.15 -0.11,-1.87 0.32,-2.75 0.22,-0.46 0.31,-0.44 0.47,-1.01 0.15,-0.54 0.11,-0.81 0.02,-1.35 -0.51,-2.89 -1.76,-4.53 2.6,-5.36 1.44,-0.28 0.71,-0.18 1.19,-1.43 0.29,-0.76 0.61,-1.09 1.55,-1.19 0.45,-0.04 0.64,-0.11 1.14,-0.11 0.82,0 0.57,0.09 1.07,-0.29 0.57,-0.43 1.17,-0.57 1.51,-1.23 1.18,-2.25 2.48,-2.02 2.65,-2.7 -0.07,-0.89 -0.58,-1.66 -0.3,-2.45 1.01,-2.82 1.57,-0.96 1.99,-5.99 0.04,-0.44 -0.1,-0.84 -0.1,-1.46l0 -3.42c0,-0.74 0.66,-0.69 1.18,-0.98 0.75,-0.42 1.98,-1.46 2.72,-1.6 2.71,-0.54 3.32,0.38 3.78,-2.93 0.26,-1.93 0.86,-2.86 0.86,-3.93 0,-0.89 -0.8,-0.94 -0.8,-1.93 0,-0.62 0.23,-0.76 0.31,-1.17 0.24,-1.21 -0.19,-2.62 1.06,-3.39 0.65,-0.4 1.3,-0.48 1.96,-1 0.57,-0.45 0.76,-1.21 1.12,-1.84 1.05,-1.81 1.26,-1.79 1.24,-4.67 -0.01,-1.36 0.53,-1.3 0.58,-2.39 0.05,-1.09 -0.19,-2.02 0.26,-2.8 0.48,-0.84 0.84,-0.68 1.09,-1.87 0.25,-1.19 0.24,-1.24 0.94,-2.01 0.51,-0.56 0.69,-1.18 0.83,-2.13 0.21,-1.41 0.31,-1.1 1.3,-1.66 0.57,-0.32 1.18,-0.84 1.52,-1.44 0.19,-0.34 0.31,-0.63 0.49,-0.99 0.65,-1.28 1.56,-2.4 2.34,-3.58 0.24,-0.37 0.43,-0.82 0.89,-0.82 1.2,0 2.34,1.78 4.43,0.1 0.48,-0.39 0.74,-0.65 1.18,-1.1 1.07,-1.08 3.11,-1.71 4.16,-2.67 1.57,-1.44 5.45,-0.83 3.56,-4.64 -0.83,-1.67 -0.75,-1.2 -0.46,-2.95 0.07,-0.44 0.12,-0.96 0.22,-1.37 0.23,-0.92 0.87,-1.37 0.85,-2.37 -0.02,-0.48 -0.19,-0.8 -0.28,-1.27 -0.27,-1.44 0.57,-2.56 0.57,-4.1 0,-0.39 -1.73,-1.14 -2.07,-1.45 -0.73,-0.65 -0.85,-1.33 -1.53,-2 -1.2,-1.17 -4,-0.88 -6.3,-0.88 -0.07,-0.91 -0.35,-0.98 -0.34,-2.39 0.01,-1.02 -0.2,-1.54 -0.35,-2.37 -0.13,-0.79 -0.05,-1.68 -0.23,-2.51 -0.49,-2.2 -0.87,-4.69 -1.26,-6.94l-0.26 -1.1c-0.11,-0.41 -0.2,-0.66 -0.37,-1 -1.26,-2.59 -4.94,-7.43 -6.64,-9.98 -0.75,-1.12 -1.18,-2.36 -2.03,-3.43 -0.44,-0.55 -0.77,-1.12 -1.72,-1.12l-4.21 0c-1.15,0 -2.87,2.16 -3.38,3.11 -0.33,0.61 -0.54,0.81 -1.33,0.95 -1.51,0.27 -2.07,-0.18 -3.9,0.42 -4.31,1.42 -2.46,2.11 -4.74,4.02 -0.88,0.74 -1.57,1.23 -2.75,1.69 -1.68,0.66 -1.16,1.24 -1.93,2.51 -0.27,0.45 -0.61,0.8 -0.93,1.23 -0.26,0.35 -0.8,0.97 -1.3,0.97z"/>
   <path class="fil1" d="M102.77 290.44l0.23 3.41c0,0.25 0.02,0.66 -0,0.9 -0,0.04 -0.01,0.06 -0.01,0.1 -0.09,0.67 -0.02,2.02 -0.22,2.42 0.99,0 1.63,-0.34 2.61,-0.35 1.03,0 2.05,0.01 3.08,0 1.02,-0 1.73,0.11 2.84,0.11 1.54,0 3.37,0.21 4.83,-0.3 1.54,-0.53 4.63,-0.22 6.07,-0.42 2.73,-0.37 7.11,-0.3 9.66,0.53 0.66,0.22 1.02,0.44 1.54,0.63 1.24,0.46 2.59,0.01 3.83,0.5 0.55,0.22 0.99,0.36 1.54,0.52 1.37,0.4 2.41,1.73 3.73,2.76 0.82,0.64 2.85,2.22 3.43,2.94 0.9,1.12 2.33,2.43 2.94,3.44 0.5,0.83 1.02,1.97 1.63,2.69 0.34,0.41 0.69,0.63 0.98,1.07 0.3,0.46 0.36,0.97 0.66,1.5 0.63,1.13 1.1,1.33 1.47,2.85 0.32,1.29 0.54,2.06 1.79,2.54l2.19 1c0.11,0.15 0.17,0.7 0.17,0.97 -0.43,0.03 -0.6,0.18 -0.91,0.34 0.08,0.94 0.57,1.28 0.57,2.28 0,2.09 0.9,2.5 1.43,4.37 0.63,2.23 1.41,4.41 2.24,6.52 0.41,1.03 0.56,0.93 1.14,1.7 1.32,1.76 0.96,2.05 3.18,4.1l1.57 1.28c0.32,0.24 0.47,0.46 0.78,0.7 1.81,1.46 3.46,2.37 6,2.77 0.8,0.12 1.87,-0.15 2.57,-0.27 0.93,-0.16 1.76,-0.13 2.83,-0.13 0.15,-0.22 0.21,-0.31 0.34,-0.57 1.22,0 2.15,-0.04 3.3,-0.12 1.02,-0.07 1.68,-0.46 2.96,-0.45 3.56,0.02 2.4,-0.8 6.15,-0.8 0.2,-0.29 0.59,-1.1 0.68,-1.48l2.5 0c0.11,0.45 0.33,0.85 0.46,1.37 1.55,0 2.44,-0.83 3.87,-1.13 1.31,-0.27 3.51,-0.13 4.62,-0.5 0.69,-0.23 1.19,-0.43 1.87,-0.63 1.28,-0.38 5.21,-1.15 6.47,-1.15l5.54 0.07c0.55,-0.1 1.84,-0.76 2.04,-1.26 0.2,-0.51 0.09,-2.25 0.05,-2.9 -0.03,-0.44 -0.17,-0.97 -0.32,-1.28 -0.22,-0.47 -0.54,-0.56 -0.59,-1.12 0.9,-0.48 1.03,-0.14 1.68,0.6 0.7,0.81 2.14,1.91 3.33,1.91 0.43,0 0.5,-0.66 0.63,-1.07 0.4,-1.21 1.36,-0.89 1.72,-1.7 0.35,-0.8 0.57,-1.67 1.02,-2.4 0.45,-0.74 0.52,-1.67 1.05,-2.36 0.13,-0.17 0.23,-0.24 0.38,-0.42 0.18,-0.22 0.19,-0.27 0.41,-0.5 0.6,-0.62 1.24,-1.03 1.49,-1.92 0.26,-0.94 0.13,-2.06 0.29,-3.12 0.16,-1.06 0.17,-2.05 0.41,-3.01 0.52,-2.06 1.67,-1.82 0.28,-3.91 -0.2,-0.3 -0.61,-1.06 -0.61,-1.44 0,-2.55 -0.19,-3.51 1.96,-4.87 1.17,-0.74 1.14,-0.35 1.85,-1.57 0.75,-1.28 1.43,-1.74 2.31,-2.93 0.85,-1.15 1.78,-1.84 2.49,-2.75 0.45,-0.58 2.94,-3.13 3.46,-3.48 -1.33,-2.51 -3.08,-5.27 -4.56,-7.73l-13.73 -23.15c-0.35,-0.58 -5.91,-9.63 -6.07,-10.32 -1.36,0.72 -2.76,1.38 -4.17,2.09 -1.8,0.89 -11.74,6.17 -12.44,6.33 0.27,1.17 2.5,6.83 2.96,7.97 0.52,1.31 0.96,2.67 1.48,3.98 0.52,1.31 1.14,2.63 1.14,4.44 0,6.04 -2.32,10.8 -2.39,11.61 1.93,0.93 2.59,0.69 4.51,3.01 1.64,1.98 2.15,5.35 1.67,7.84 -0.44,2.28 -1.72,4.33 -3.13,5.63l-1.21 0.96c-0.44,0.3 -0.9,0.54 -1.38,0.78 -2.59,1.3 -5.98,1.17 -8.54,-0.11 -2.74,-1.37 -4.59,-3.97 -5.23,-6.95 -0.44,-2.09 -0.09,-4.25 0.76,-6.18 1.51,-3.44 5.24,-5.65 9.03,-5.65 0.17,-2.04 2.5,-6.71 2.5,-11.04 0,-1.62 -0.56,-2.64 -1.01,-3.77 -0.87,-2.18 -1.71,-4.86 -2.95,-6.84 -2.31,-3.69 -4.36,-1.81 -7.52,-0.53l-8.52 4.22c-0.42,0.36 -0.7,0.68 -1.01,1.15 -1.62,2.43 -1.52,5.9 -1.93,8.77 -0.09,0.66 -0.28,1.3 -0.28,1.89 0.73,0.17 1.87,0.92 2.41,1.35 0.76,0.6 1.36,1.17 1.92,1.95 3.97,5.48 1.26,12.81 -3.88,14.9 -0.6,0.24 -1.17,0.46 -1.87,0.63 -6.24,1.45 -12.11,-3.48 -12.11,-9.04 0,-3.55 0.78,-5.48 3.16,-7.88 1.79,-1.81 4.49,-2.7 7.08,-2.7 0.03,-1.4 0.33,-3.01 0.57,-4.44 0.24,-1.46 0.51,-2.89 0.93,-4.2 0.42,-1.32 0.83,-2.37 1.56,-3.45 1.94,-2.9 6.45,-4.38 9.61,-5.63 0.63,-0.25 1.14,-0.47 1.75,-0.75 0.61,-0.29 1.11,-0.5 1.7,-0.8l3.45 -1.67c-0.87,-1.65 -3.06,-4.77 -4.14,-6.56l-5.62 -8.83c-0.38,-0.61 -1.21,-1.59 -1.39,-2.25 -0.57,0.05 -0.84,0.37 -1.32,0.61l-3.95 2.09c-0.5,0.25 -0.76,0.44 -1.25,0.69 -0.52,0.26 -0.88,0.45 -1.33,0.71 -0.42,0.24 -0.83,0.4 -1.28,0.65l-17 9.06c-0.49,0.24 -0.74,0.43 -1.25,0.69 -3.98,1.96 -7.77,4.26 -11.72,6.26 -3.53,1.79 -6.94,3.78 -10.47,5.58l-19.54 10.39c-2.22,1.12 -4.3,2.39 -6.52,3.49 -2.21,1.09 -4.34,2.35 -6.52,3.49 -0.45,0.23 -0.92,0.44 -1.37,0.68z"/>
   <path class="fil1" d="M121.09 159.56l-0 2.17c0.02,0.59 0.12,0.78 0.12,1.48 0,1.24 -0.34,2.19 -0.34,3.41 0,1.48 0.34,2.56 0.34,3.98 0,0.64 -0.68,1.04 -0.68,2.05 0,1.62 0.91,1.65 0.91,2.84 0,1.12 -1.68,1.99 -1.96,3.16 -0.1,0.42 -0.13,0.95 -0.25,1.46 -0.11,0.48 -0.29,0.83 -0.41,1.3 -0.24,0.94 -0.22,2.02 -0.47,2.94 -0.7,2.55 -0.02,1.87 2.27,4.14 1.44,1.42 1.82,0.98 2.26,3.09 0.14,0.65 0.21,0.84 0.46,1.36 0.95,1.94 -0.28,4.16 1.19,5.98 0.28,0.34 0.63,0.67 0.78,1.05 0.69,1.87 -0.87,3.97 -1.02,5.8 -1.77,0 -2.68,-0.31 -3.15,0.6 -0.89,1.72 -1.74,2.9 -0.29,4.32 1.54,1.5 0.98,1.73 0.15,3.16 -0.44,0.74 -0.29,0.86 -0.53,1.75 -0.12,0.45 -1.39,2.66 -1.68,2.87 -0.97,0.71 -2.61,0.2 -3.57,0.98 -1.22,1 -0.71,1.87 -0.71,3.72 -0.88,0.24 -3.27,3.79 -3.53,4.89 6.31,0 11.49,4.99 11.49,11.27l4.47 0.77c2.51,0.32 9.11,0.46 11.19,-0.02 1.06,-0.24 3.65,-1.82 4.75,-2.42 0.43,-0.23 0.81,-0.38 1.21,-0.61l9.41 -5.04c0.47,-0.24 0.76,-0.43 1.17,-0.65 0.8,-0.41 1.49,-0.79 2.31,-1.21l9.41 -5.05c0.81,-0.43 1.58,-0.83 2.39,-1.25 0.41,-0.22 0.7,-0.41 1.17,-0.65 1.12,-0.56 3.04,-1.35 3.04,-2.43 0,-1.93 -2.68,-5.97 -3.82,-7.9 -1.87,-3.17 -1.56,-3.43 -6.52,-5.09 -0.94,-0.31 -1.98,-0.55 -3.02,-0.85 -0.73,-0.21 -2.5,-0.83 -3.14,-0.85 -0.35,1.48 -2.59,3.59 -3.8,4.4 -4.43,2.95 -10.5,2.54 -14.33,-1.3 -1.12,-1.12 -1.64,-1.78 -2.4,-3.29 -2.13,-4.21 -0.98,-9.8 2.17,-12.93 0.94,-0.93 1.91,-1.68 3.18,-2.29 7.5,-3.58 16.43,1.79 16.43,10.39 0,1 -0.23,1.67 -0.23,2.5 1.13,0.26 2.24,0.66 3.42,0.9 2.16,0.45 4.59,0.91 6.4,2.25 3.4,2.5 5.71,7.04 7.78,10.77 0.37,0.66 1.01,1.52 1.18,2.24 5.06,-2.67 10.3,-5.11 15.4,-7.7 0.46,-0.24 0.69,-0.41 1.17,-0.65 0.84,-0.42 1.63,-0.79 2.43,-1.21 -0.04,-0.48 -2.39,-4.62 -2.67,-5.07 -1.5,-2.51 -4.86,-8.78 -6.25,-11.39l-0.69 -1.25c-2.04,-3.8 -4.25,-7.5 -6.22,-11.3 -1.13,-2.17 -2.39,-4.23 -3.49,-6.41l-0.69 -1.25c-0.25,-0.45 -0.43,-0.8 -0.69,-1.25 -0.94,-1.68 -1.79,-3.43 -2.79,-5.06l-3.43 -6.24c-0.26,-0.52 -0.47,-0.82 -0.72,-1.33 -0.44,-0.9 -0.91,-1.6 -1.36,-2.51l-14.56 -26.52c-0.99,-1.66 -0.22,-1.2 -3.58,-1.2 -3.02,0 -5.13,0.35 -7.61,1.15 -0.22,0.07 -0.43,0.15 -0.69,0.22 -0.91,0.22 -1.06,0.18 -1.79,0.94 -0.67,0.69 -0.56,0.01 -2.91,2.44 -0.4,0.42 -0.39,0.57 -0.88,0.94l-1.99 1.54c-1,0.73 -0.72,1.71 -0.84,2.8 -0.06,0.52 -0.02,1.26 -0.02,1.8 0,2.26 -0.29,5.12 -1.36,6.38l-0.1 0.12c-0.36,0.52 -0.56,1.28 -0.94,1.79 -0.24,0.32 -0.58,0.72 -0.78,1.04 -0.94,1.55 -3.11,3.28 -4.3,4.69 -1.1,1.31 -2.88,2.37 -2.88,4.29z"/>
   <path class="fil1" d="M135.32 244.46c-3.34,0 -4.78,-0.18 -7.97,-0.45 -1.86,-0.16 -3.59,-0.57 -5.57,-0.57 -0.21,0.91 -1.02,2.2 -1.54,2.89 -0.75,0.98 -1.29,1.54 -2.26,2.3 -3.48,2.73 -8.61,3.05 -12.51,0.88 -1.24,-0.69 -2.32,-1.61 -3.22,-2.69 -0.31,-0.37 -0,-0.28 -0.5,-0.41 0.09,0.4 0.12,0.92 0.2,1.28 0.36,1.54 0.26,1.59 -0.35,3.01 -0.4,0.94 -0.42,2.15 -0.42,3.22 0,2.58 1.39,0.37 0.07,6.22 -0.22,0.96 -0.64,2.57 -0.64,3.57 0,1.08 0.69,1.11 0.69,4.55 0,1.95 -0.12,1.7 1.02,3.3 1.9,2.65 -0.57,0.57 0.24,6.35 0.44,3.11 -0.21,1.79 -0.24,3.32 -0.01,0.55 0.12,0.36 0.11,0.9 -0.02,0.55 -0.14,0.27 -0.05,0.96 0.12,0.89 0.05,3.69 0.28,4.17 0.15,0.15 3.38,-1.69 3.72,-1.85l2.58 -1.41c1.74,-0.94 4.94,-2.5 6.47,-3.43 1.53,-0.93 4.75,-2.54 6.46,-3.43l30.95 -16.51c1.64,-0.96 3.48,-1.78 5.12,-2.73 0.45,-0.26 0.81,-0.45 1.33,-0.71 0.49,-0.25 0.74,-0.44 1.25,-0.69 3.07,-1.52 6.02,-3.27 9.07,-4.82 3.91,-1.98 7.65,-4.24 11.57,-6.19l2.59 -1.39c0.37,-0.22 0.96,-0.56 1.39,-0.66 -0.06,-0.68 -1.98,-3.81 -2.43,-4.63 -0.22,-0.41 -0.38,-0.69 -0.61,-1.1 -1.06,-1.9 -2.2,-3.76 -3.19,-5.69l-3.19 -5.69c-0.24,-0.47 -0.49,-0.7 -0.61,-1.21 -0.62,0.05 -1.93,0.87 -2.47,1.17l-21.85 11.5c-0.44,0.24 -0.74,0.43 -1.18,0.65 -0.43,0.21 -0.75,0.38 -1.19,0.63 -1.21,0.72 -2.44,1.24 -3.67,1.91l-3.64 1.93c-2.07,1.03 -3.29,1.56 -5.84,1.56z"/>
   <path class="fil1" d="M155.01 128.26c0.05,0.61 2.19,4.17 2.62,5 0.23,0.44 0.46,0.83 0.69,1.25l3.41 6.26c0.23,0.44 0.46,0.83 0.68,1.25 0.23,0.44 0.46,0.83 0.69,1.25l2.73 5.01c1.55,2.99 4.11,7.27 5.46,10.02l2.73 5.01c0.41,0.84 0.96,1.67 1.37,2.5 1.41,2.85 4.06,7.16 5.46,10.02 1.41,2.85 4.06,7.16 5.46,10.02 0.87,1.76 2.43,4.36 3.42,6.26 1.45,2.81 3.31,5.93 4.78,8.76 0.22,0.42 0.45,0.81 0.69,1.25l3.41 6.26 15.44 -8.34c0.46,-0.22 0.68,-0.38 1.1,-0.61 0.45,-0.24 0.7,-0.34 1.1,-0.61l-1.19 -2.23c-0.45,-0.75 -0.78,-1.46 -1.23,-2.19l-11.66 -21c-0.24,-0.46 -0.42,-0.73 -0.65,-1.17 -0.39,-0.78 -0.82,-1.45 -1.21,-2.2 -0.19,-0.38 -0.38,-0.67 -0.61,-1.1 -0.21,-0.39 -0.38,-0.69 -0.61,-1.1 -0.21,-0.39 -0.4,-0.73 -0.61,-1.09 -0.43,-0.74 -1.7,-2.77 -1.7,-3.54 0,-4.34 2.91,-11.74 2.96,-13.77 -0.28,-0.13 -0.64,-0.22 -0.93,-0.32 -0.35,-0.13 -0.52,-0.22 -0.85,-0.4 -2.61,-1.31 -0.6,-0.72 -3.81,-1.43 -0.41,-0.09 -0.63,-0.22 -0.97,-0.19 -0.57,0.05 -0.64,0.16 -1.1,0.11 -1.6,-0.19 -2.91,-1.66 -3.39,-2.98 -0.17,-0.45 -0.23,-0.48 -0.51,-0.86 -0.65,-0.88 -2.11,-3.56 -2.96,-4.78 -1.11,-1.6 -2.58,-2.7 -3.89,-3.85 -0.84,-0.73 -3.91,-3.16 -4.69,-3.16 -0.42,0 -0.68,0.11 -1,0.24 -0.56,0.22 -0.38,0.15 -1.14,0.24 -0.95,0.11 -1.13,-0.08 -1.89,-0.54 -0.65,-0.4 -1.02,-0.54 -1.81,-0.8 -0.74,-0.24 -1.31,-0.43 -2.05,-0.68 -1.25,-0.43 -2.34,-1.31 -3.62,-1.61 -0.81,-0.19 -1.46,-0.13 -2.04,-0.57 -0.32,-0.24 -0.35,-0.39 -0.83,-0.54 -1.25,-0.39 -3.31,-0 -4.45,0.22 -1.25,0.25 -1.84,0.53 -2.78,0.75z"/>
   <path class="fil1" d="M220.79 254.25c0.09,0.41 0.48,0.93 0.68,1.26 0.27,0.44 0.49,0.81 0.77,1.28l10.48 17.74c2.04,3.4 3.98,6.74 6.02,10.15 1.03,1.72 1.98,3.37 3,5.08 0.49,0.82 0.98,1.67 1.48,2.5 0.3,0.5 1.36,2.13 1.47,2.62 0.74,-0.06 2.95,-0.9 3.83,-1.18 0.48,-0.15 0.56,-0.1 0.74,-0.51l0.94 -2.81c0.17,-0.82 -0.02,-1.51 0.43,-2.07 1.12,-1.38 2.37,-0.15 3.46,-1.55 0.24,-0.31 0.33,-0.39 0.57,-0.69 0.24,-0.31 0.43,-0.48 0.61,-0.75 -0.3,-0.56 -0.74,-0.99 -0.91,-1.71l3.3 -1.7 -7.21 -13.62c-1.7,-3.35 -3.81,-7.04 -5.42,-10.28l-6.72 -12.63c-0.42,0.1 -1.81,0.82 -2.23,1.07 -1.43,0.86 -9.02,4.67 -10.9,5.6 -0.79,0.39 -1.36,0.74 -2.16,1.14 -0.56,0.28 -1.71,0.94 -2.24,1.06z"/>
   <path class="fil0" d="M205.77 35.17c3.73,0 6.6,-3.44 6.6,-7.17 0,-2.57 -0.4,-4.17 -1.89,-6.08 -2.43,-3.12 -7.07,-3.37 -9.8,-0.15 -0.57,0.67 -0.97,1.43 -1.32,2.32 -0.52,1.33 -0.61,3.41 -0.32,4.83 0.11,0.57 0.22,0.9 0.39,1.43 0.88,2.59 3.38,4.82 6.33,4.82z"/>
   <path class="fil0" d="M284.98 38.24c0,2.15 0.28,3.98 1.91,5.61 0.64,0.63 1.02,0.89 1.89,1.3 3.41,1.6 6.89,-0.3 8.57,-3.08 3.8,-6.29 -0.5,-12.91 -6.15,-11.73 -3.57,0.75 -6.21,4.69 -6.21,7.91z"/>
   <path class="fil0" d="M129.74 45.87c0,3.89 2.57,7.81 6.38,8.64 2.98,0.65 5.72,-0.72 7.05,-3.41 1.89,-3.82 -0.43,-8.91 -3.72,-10.74 -5.04,-2.8 -9.71,0.87 -9.71,5.5z"/>
   <path class="fil0" d="M40.29 134.07c0,4.11 3.23,7.14 6.76,7.92 1.56,0.34 3.07,0.36 4.54,-0.26 3.06,-1.3 4.69,-4.37 3.79,-7.5 -0.75,-2.62 -2.43,-4.07 -4.77,-5.24 -3.25,-1.63 -7.76,-1.05 -9.64,2.7 -0.29,0.58 -0.69,1.53 -0.69,2.39z"/>
   <path class="fil0" d="M256.19 419.16c0,-7.92 -7.34,-10.19 -11.02,-6.23 -4.59,4.96 -0.33,15.13 6.85,12.65 0.79,-0.28 1.63,-0.85 2.15,-1.38 0.47,-0.49 1.11,-1.44 1.4,-2.13 0.35,-0.85 0.62,-1.78 0.62,-2.91z"/>
   <path class="fil0" d="M410.85 271.89c0,2.42 0.57,4.06 2.02,5.49 2.89,2.88 10.38,3.88 12.5,-4.63 0.1,-0.39 0.27,-1.3 0.39,-1.55l-14.34 -3.19c0,0.82 -0.57,2.11 -0.57,3.87z"/>
   <path class="fil1" d="M227.16 239.91c0,1.71 -1.54,1.2 -2.28,1.14l0 -0.91c0.31,0.17 1.48,0.71 1.48,-0.11 0,-0.61 -1.59,-0.68 -1.59,-1.71 0,-1.36 1.48,-1.07 2.16,-0.91l0 0.8c-0.66,-0.35 -1.58,-0.53 -1.31,0.17 0.18,0.44 1.54,0.55 1.54,1.54zm-7.96 -2.85c0.11,0.48 0.37,0.74 0.57,1.14l4.09 7.85 4.48 -2.35c0.82,-0.41 1.47,-0.79 2.24,-1.17l2.28 -1.14 -4.1 -7.85c-0.19,-0.38 -0.48,-0.74 -0.57,-1.14 -0.46,0.11 -8.08,4.19 -8.99,4.67z"/>
   <path class="fil1" d="M212.37 231.37c-0.42,-0.28 -0.34,-0.46 -1.02,-0.46 -1.37,0 -1.59,2.39 0.11,2.39 0.46,0 0.57,-0.23 1.02,-0.34l0 0.8c-0.81,0.43 -1.89,0.54 -2.59,-0.26 -1.28,-1.45 0.12,-4.35 2.59,-3.04 -0.04,0.44 -0.11,0.37 -0.11,0.91zm-8.19 -1.48c0.03,0.39 0.31,0.74 0.49,1.1 0.56,1.13 3.94,7.37 4.06,7.89 0.67,-0.16 1.59,-0.77 2.2,-1.1 0.84,-0.45 6.35,-3.35 6.79,-3.45 -0.06,-0.66 -0.81,-1.72 -1.1,-2.31l-3.56 -6.79c-0.66,0.44 -1.44,0.76 -2.17,1.14l-6.71 3.53z"/>
   <path class="fil1" d="M212.25 216.81l-0.8 0c0.11,-0.49 0.67,-1.46 0.91,-1.94 0.24,-0.47 0.65,-1.54 1.02,-1.82 0.24,1 1.63,2.87 1.71,3.76l-0.8 0c-0.1,-0.2 -0.13,-0.37 -0.23,-0.57l-1.59 0c-0.07,0.3 -0.1,0.33 -0.23,0.57zm-5.46 -3.98l4.67 8.99 6.72 -3.53c0.63,-0.31 1.68,-1 2.28,-1.14 -0.2,-0.37 -0.37,-0.76 -0.57,-1.14l-4.1 -7.85c-0.53,0.12 -5.74,2.94 -6.76,3.49 -0.78,0.42 -1.55,0.71 -2.24,1.18z"/>
   <path class="fil1" d="M105.5 238.77c0,3.06 2.39,5.57 5.69,5.57 2.77,0 5.35,-2.48 5.35,-5.23l0 -0.57c0,-2.8 -2.46,-5.24 -5.69,-5.24 -2.86,0 -5.35,2.6 -5.35,5.46z"/>
   <path class="fil1" d="M261.42 158.42c0,4.9 5.85,7.4 9.37,4.02 3.54,-3.39 1.07,-9.48 -3.79,-9.48 -3.09,0 -5.58,2.52 -5.58,5.46z"/>
   <path class="fil1" d="M192.45 228.19c-1.05,0 -0.8,-0.13 -0.8,-1.7 0,-0.72 0,-1.44 0,-2.16 0.89,0.47 1.57,1.54 2.5,2.16l0 -2.05 0.8 0 0 3.87c-0.28,-0.19 -0.34,-0.31 -0.6,-0.54 -0.72,-0.61 -1.5,-1.52 -1.9,-1.63l0 2.05zm-5.69 -4.09l4.67 8.99c0.76,-0.18 8.1,-4.34 8.99,-4.55 -0.16,-0.68 -0.83,-1.65 -1.14,-2.28l-3.53 -6.72c-0.76,0.18 -2.54,1.28 -3.34,1.67 -0.43,0.21 -0.72,0.35 -1.14,0.57 -0.43,0.22 -0.68,0.4 -1.09,0.61 -0.8,0.4 -2.96,1.6 -3.42,1.71z"/>
   <path class="fil1" d="M208.61 247.08c2.69,0 2.67,3.98 0.11,3.98 -1.79,0 -2.41,-2.23 -1.4,-3.33 0.22,-0.24 0.91,-0.65 1.28,-0.65zm-6.71 -0.11c1.56,2.95 3.1,5.93 4.67,8.88 0.46,-0.04 4.81,-2.45 5.57,-2.85 0.37,-0.19 0.76,-0.38 1.14,-0.57 0.63,-0.31 1.68,-1 2.28,-1.14l-4.06 -7.89c-0.22,-0.45 -0.4,-0.7 -0.61,-1.1 -0.68,0.16 -1.65,0.83 -2.27,1.14l-6.72 3.53z"/>
   <path class="fil1" d="M272.23 236.04c0,3.09 2.41,5.46 4.89,5.46 1.92,0 2.85,-0.18 4.3,-1.62 1.55,-1.55 1.97,-3.99 0.97,-6.04 -0.87,-1.8 -2.77,-3.04 -4.81,-3.04 -2.84,0 -5.35,2.39 -5.35,5.24z"/>
   <path class="fil1" d="M145.9 206.45c1.17,0 1.78,0.04 2.89,-0.53 0.31,-0.16 0.53,-0.28 0.78,-0.48l0.6 -0.54c1.61,-1.6 1.98,-3.84 1.08,-5.95 -0.23,-0.54 -0.62,-1.05 -1.04,-1.46 -1.29,-1.28 -2.21,-1.62 -4.07,-1.62 -4.34,0 -6.78,5.58 -3.73,8.85 0.74,0.8 2.02,1.73 3.5,1.73z"/>
   <path class="fil1" d="M325.49 173.67c4.88,0 6.91,-5.88 3.96,-8.85 -1.52,-1.53 -2.36,-1.74 -4.41,-1.74 -3.12,0 -6.11,3.92 -4.33,7.52 0.93,1.87 2.67,3.07 4.78,3.07z"/>
   <path class="fil1" d="M172.19 294.99c0,1.63 0.64,2.86 1.51,3.73 3.27,3.26 9.07,1.46 9.07,-3.96 0,-2.7 -2.3,-5.01 -5.46,-5.01 -2.76,0 -5.12,2.48 -5.12,5.24z"/>
   <path class="fil1" d="M200.99 144.76c1.56,0 2.8,-0.69 3.63,-1.49l0.22 -0.24c3.26,-3.56 0.4,-8.86 -3.51,-8.86 -1.83,0 -3.03,0.42 -4.24,1.67 -0.37,0.39 -0.81,1.06 -1.01,1.61 -0.52,1.46 -0.58,2.8 0.13,4.23 0.93,1.88 2.67,3.07 4.78,3.07z"/>
   <path class="fil1" d="M197.12 301.14c0,2.79 2,4.94 4.86,5.16 2.7,0.2 5.27,-2.16 5.27,-4.59 0,-1.85 -0.18,-2.73 -1.56,-4.13 -1.94,-1.96 -5.01,-1.84 -7,-0 -0.82,0.76 -1.56,2.38 -1.56,3.56z"/>
   <path class="fil0" d="M25.72 278.72c0,1.96 0.61,2.83 0.69,3.76 0.53,-0.01 2.76,-0.74 3.4,-0.92l3.43 -1.01c-0.14,-1.71 -1.54,-5.01 -3.98,-5.01 -0.8,0 -1.97,0.47 -2.46,0.84 -0.63,0.48 -1.07,1.29 -1.07,2.35z"/>
   <path class="fil0" d="M344.5 64.87c0.32,0.09 0.57,0.37 0.89,0.59 1.5,1.02 3.54,2.39 5.41,0.58 2.51,-2.43 0.37,-4.72 -1.62,-6.3 -0.3,-0.24 -0.25,-0.3 -0.69,-0.33 -0.1,0.37 -0.23,0.39 -0.46,0.68 -0.17,0.21 -0.3,0.42 -0.49,0.65 -0.38,0.46 -0.68,0.85 -1.06,1.33 -0.38,0.49 -0.66,0.87 -1.04,1.34 -0.31,0.37 -0.9,1 -0.94,1.45z"/>
   <path class="fil0" d="M24.24 202.92c0.26,0.35 5.52,3.37 6.44,3.92 0.33,0.2 0.67,0.49 1.07,0.52l0.91 -6.6 -7.33 1.89c-0.44,0.11 -0.69,0.24 -1.09,0.28z"/>
   <path class="fil0" d="M87.52 88.09c0.48,-0.13 0.93,-0.76 1.28,-1.11l2.46 -2.32c0.42,-0.33 1.01,-0.68 1.16,-1.24 -0.56,-0.13 -3.14,-1.38 -3.87,-1.7l-2.92 -1.29c-0.41,-0.21 -0.59,-0.31 -1.06,-0.42 0.14,0.28 0.24,0.65 0.37,0.99l2.59 7.09z"/>
   <path class="fil0" d="M23.67 240.7l4.11 1.35c0.7,0.24 1.39,0.46 2.05,0.69 0.61,0.2 1.51,0.44 2.04,0.7 0,-1.19 -0.14,-2.25 -0.22,-3.31l-0.24 -3.41c-0.66,0.35 -7.43,3.57 -7.74,3.98z"/>
   <path class="fil0" d="M207.59 423.71l-2.5 -7.74c-0.29,0.21 -0.24,0.24 -0.42,0.61 -0.44,0.89 -3.49,6.39 -3.36,6.63 0.14,0.26 5.77,0.5 6.28,0.5z"/>
   <path class="fil2" d="M207.7 249.01c0,1.57 2.05,1.85 2.05,-0.11 0,-1.34 -2.05,-1.4 -2.05,0.11z"/>
   <path class="fil3" d="M212.82 215.67l0.91 0c-0.04,-0.45 -0.23,-0.67 -0.34,-1.14l-0.22 0c-0.11,0.46 -0.31,0.69 -0.34,1.14z"/>
  </g>
 </g>
</svg>
