<?xml version="1.0" encoding="UTF-8"?>
<!DOCTYPE svg PUBLIC "-//W3C//DTD SVG 1.1//EN" "http://www.w3.org/Graphics/SVG/1.1/DTD/svg11.dtd">
<!-- Creator: CorelDRAW 2021 (64-Bit) -->
<svg xmlns="http://www.w3.org/2000/svg" xml:space="preserve" width="6in" height="6in" version="1.1" style="shape-rendering:geometricPrecision; text-rendering:geometricPrecision; image-rendering:optimizeQuality; fill-rule:evenodd; clip-rule:evenodd"
viewBox="0 0 6000 6000"
 xmlns:xlink="http://www.w3.org/1999/xlink"
 xmlns:xodm="http://www.corel.com/coreldraw/odm/2003">
 <defs>
  <style type="text/css">
   <![CDATA[
    .fil0 {fill:white}
   ]]>
  </style>
 </defs>
 <g id="Layer_x0020_1">
  <metadata id="CorelCorpID_0Corel-Layer"/>
  <g id="_2578401220000">
   <g>
    <path class="fil0" d="M2779.56 3120.49c59.65,0 47.17,14.64 47.17,-72.14 0,-15.39 -2.78,-16.45 -2.78,-30.52 3.68,4.24 1.12,1.14 4.62,6.48l59.48 84.79c10.63,14.65 5.43,11.39 44.11,11.39 6.39,0 8.31,-1.93 8.31,-8.33l0 -147.02c0,-12.57 -14.22,-8.33 -44.39,-8.33l0 102.65 -36.05 -52.73c-42.35,-60.3 -26.51,-49.93 -80.47,-49.93l0 163.69z"/>
    <path class="fil0" d="M3578.54 3120.49c59.65,0 47.15,14.64 47.15,-72.14 0,-15.39 -2.77,-16.45 -2.77,-30.52 14.07,16.2 64.65,102.65 77.67,102.65 27.09,0 38.83,3.76 38.83,-8.33l0 -147.02c0,-12.57 -14.22,-8.33 -44.39,-8.33l0 102.65c-3.47,-3.99 -1.12,-0.82 -4.55,-6.54l-59.13 -85.14c-11.35,-15.39 -12,-10.97 -52.83,-10.97l0 163.69z"/>
    <path class="fil0" d="M2779.56 2848.61l47.17 0 0 -72.13c0,-15.4 -2.78,-16.44 -2.78,-30.52 2.51,2.9 0.1,-0.6 3.51,4.82l12.54 20.75c8.25,12.21 50.46,66.43 53.3,77.08l47.17 0 0 -160.91 -44.39 0 0 99.87c-2.54,-2.92 -0.56,-0.38 -3.52,-4.8l-31.76 -45.91c-7.02,-9.37 -11.41,-16.23 -18.62,-25.78 -21.97,-29.11 -2.7,-23.38 -62.62,-23.38l0 160.91z"/>
    <path class="fil0" d="M3414.85 3048.35l0 -19.42c0,-47.54 80.46,-47.54 80.46,0 0,25.24 -1.95,55.49 -41.61,55.49 -24.44,0 -38.85,-21.62 -38.85,-36.07zm-47.15 -11.1c0,48.93 43.11,86 86,86 46.73,0 88.77,-37.56 88.77,-83.22 0,-69.65 -85.22,-116.98 -147.76,-61.75 -12.89,11.38 -27.02,35.91 -27.02,58.97z"/>
    <path class="fil0" d="M3345.5 2773.71c0,-15.65 -0.56,-27.21 10.53,-39.41 16.7,-18.38 69.93,-25.84 69.93,39.41 0,54 -80.45,55.4 -80.45,0zm-47.15 -5.55c0,43.24 41.83,83.22 77.67,83.22 28.48,0 50.74,-1.54 73.63,-26.23 58.09,-62.65 -2,-140.21 -54.22,-140.21 -33.62,0 -46.02,0.07 -72.87,26.99 -13.02,13.05 -24.21,31.45 -24.21,56.23z"/>
    <path class="fil0" d="M3844.87 2992.87l5.54 0c0.49,21.94 14.98,43.87 16.65,63.81l-38.83 0c1.91,-22.95 14.73,-40.87 16.65,-63.81zm-80.46 127.62l44.4 0c0.54,-6.54 6.07,-25.82 8.32,-30.52l61.03 0c2.54,10.87 5.94,20.29 8.32,30.52l44.39 0c-6.1,-26.19 -19,-55.61 -27.38,-80.81l-28.1 -82.88 -55.48 0c-5.24,10.92 -9.15,26.98 -13.88,38.85l-28.81 82.16c-3.98,11.36 -11.88,31.61 -12.8,42.69z"/>
    <path class="fil0" d="M3045.89 2992.87l5.55 0c0.48,21.94 14.99,43.87 16.65,63.81l-38.85 0c1.91,-22.95 14.74,-40.87 16.65,-63.81zm-80.45 127.62l44.39 0c0.55,-6.54 6.06,-25.82 8.31,-30.52l61.04 0c2.54,10.87 5.95,20.29 8.33,30.52l44.39 0c-6.1,-26.19 -19,-55.61 -27.39,-80.81l-28.09 -82.88 -55.49 0 -28.09 80.1c-5.81,17.43 -26.17,68.88 -27.39,83.59z"/>
    <path class="fil0" d="M3045.89 2721c8.79,6.44 4.66,7.37 12.82,31.56 3.76,11.13 8.36,22.92 9.38,35.02l-41.62 0c4.18,-8.72 19.17,-55.33 19.42,-66.58zm-80.45 127.62l44.39 0c1.93,-8.25 5.18,-23.96 8.31,-30.52l61.04 0c1.93,8.25 5.19,23.96 8.33,30.52l44.39 0 -41.26 -119.65c-4.23,-12.68 -9.03,-30.43 -14.22,-41.26l-58.27 0c-1.63,19.61 -51.43,145.67 -52.7,160.91z"/>
    <path class="fil0" d="M3575.76 2801.45c0,10.84 -15.7,24.78 -41.6,8.33 -9.44,-6 -8.17,-10.86 -19.42,-13.88 -3.49,14.97 -15.45,21.64 -16.65,36.07 8.45,2.26 11.09,7.09 21.15,12.13 31.28,15.7 98.13,12.48 98.13,-50.97 0,-52.15 -69.35,-36.83 -69.35,-61.04 0,-7.21 9.91,-13.87 13.87,-13.87 16.28,0 23.67,10.56 36.07,13.87 1.01,-12.24 7.87,-19.42 11.1,-33.29 -56,-37.5 -118.61,3.27 -102.32,52.24 12.58,37.83 69.02,23.39 69.02,50.4z"/>
    <path class="fil0" d="M3145.76 2768.16c0,43.67 34.02,83.22 77.68,83.22 36.17,0 21.17,-2.26 47.15,-8.32l0 -49.94c-6.63,4.45 -19.44,19.42 -36.07,19.42 -51.76,0 -53.6,-71.76 -18.28,-84.87 29.6,-10.97 38.13,4.65 54.35,15.52l0 -49.94c-25.99,-6.06 -10.98,-8.31 -47.15,-8.31 -43.67,0 -77.68,39.56 -77.68,83.22z"/>
    <path class="fil0" d="M3134.66 2998.42l36.07 0 0 122.07c31.57,0 47.16,4.47 47.16,-8.33l0 -113.74c42.57,0 36.07,6.35 36.07,-33.28 0,-6.39 -1.94,-8.33 -8.33,-8.33l-110.97 0 0 41.62z"/>
    <polygon class="fil0" points="3955.83,3120.49 4055.7,3120.49 4055.7,3078.87 4000.21,3078.87 4000.21,2956.8 3955.83,2956.8 "/>
    <polygon class="fil0" points="3284.47,3120.49 3328.86,3120.49 3328.86,2956.8 3284.47,2956.8 "/>
    <path class="fil0" d="M2882.22 3167.65l0 2.78 1101.36 0 0 -2.78c-188.04,0 -368.55,-2.77 -554.84,-2.77 -183.54,0 -361.26,2.77 -546.52,2.77z"/>
    <path class="fil0" d="M3844.87 3245.33c7.02,-14.63 4.53,-17.11 19.41,-24.97 2.5,10.69 6.13,15.56 8.33,24.97l8.32 0c0.35,-16.04 1.48,-8.96 8.28,-19.47 3.85,-5.96 7.63,-13.19 8.37,-22.15 -14.28,3.81 -4.83,1.87 -10.26,14.72 -4.73,11.24 -5.82,3.27 -9.16,15.8 -13.37,-9.79 -4.96,-19.18 -16.65,-27.74 -4.53,16.94 -12.87,13.58 -16.64,27.74 -15.27,-11.18 0.76,-19.8 -13.87,-30.52 0,19.14 2.46,33.98 13.87,41.62z"/>
    <path class="fil0" d="M3625.7 3237c0.71,-1.46 5.57,-22.19 13.87,-22.19 15.97,0 8.26,20.35 -13.87,22.19zm-2.77 -5.54c0,28.96 16.3,4.88 27.74,-2.78 11.2,42.19 -24.96,24.97 -24.97,24.97 4.73,17.72 30.52,11.38 30.52,-8.32 0,-21.48 1.4,-15.38 -2.77,-33.3l-19.42 -2.77c-5.17,7.73 -11.1,9.59 -11.1,22.2z"/>
    <path class="fil0" d="M4022.41 3239.78c0,-8.36 1.5,-24.97 8.32,-24.97 21.24,0 -4.24,22.23 -8.32,24.97zm19.42 -27.75c-7.88,-3.78 -14.33,-5.97 -19.65,2.5 -5.91,9.41 -10.81,45.85 10.81,24.73 0.07,-0.07 3.52,-4.14 3.82,-4.51 0.37,-0.43 0.89,-1.12 1.23,-1.54l3.78 -4.54c0.18,8.45 1.25,10.12 2.78,16.65 7.2,-5.28 2.98,-8.13 3.76,-39.32 0.07,-2.95 -0.83,-6.13 -1,-13.39 -8.41,6.17 -5.55,4.8 -5.55,19.42z"/>
    <path class="fil0" d="M3492.13 3220.7c7.76,-4.22 8.47,-5.64 19.83,-5.89 -1.02,12.23 -2.36,11.19 -13.87,13.87l-5.96 -7.98zm-7.92 24.63c8.03,-5.89 5.56,-2.26 5.56,-16.65 12.13,8.12 26.35,34.3 33.29,8.31 -5.33,3.72 -14.38,13.32 -19.42,-5.54 15.67,-3.65 23.75,-22.2 0,-22.2 -6.67,0 -8.15,4.5 -13.87,8.32 0,-14.77 3.07,-15.87 -5.56,-22.19l0 49.94z"/>
    <path class="fil0" d="M3215.11 3245.33l5.55 0c0.28,-12.54 2.78,-11.03 2.78,-24.97 5.09,3.41 11.28,8.28 16.32,11.41l8.67 5.2c5.84,5.38 0.98,5.4 8.3,8.35 0,-18.45 2.77,-24.02 2.77,-41.62l-5.54 0c0,6.1 -0.12,9.49 -0.79,15.35 -0.67,6.02 -0.31,4.46 -2,12.4 -32.33,-17.11 -18.36,-17.75 -33.29,-27.75 0,17.6 -2.78,23.17 -2.78,41.62z"/>
    <path class="fil0" d="M3731.12 3209.26c0,19.83 -3.08,22.81 0,36.07 7.56,-5.54 4.43,-3.42 9.24,-13.02 13.71,-27.29 10.36,1.6 10.37,1.74 0.97,10.71 1.9,9.02 8.14,11.28 -4.18,-17.92 -2.78,-11.82 -2.78,-33.3 -10.03,0.84 -8.33,0.27 -15.68,9.29l-3.74 4.59c0,-4.99 0.59,-15.05 0.02,-19.44 -1.39,-10.63 -2.18,-8.85 -8.33,-11.08 1.44,6.22 2.77,6.38 2.77,13.87z"/>
    <path class="fil0" d="M3353.83 3245.33l5.54 0c0.99,-11.83 1.52,-14.09 11.1,-16.65 2,8.61 3.54,8.04 5.55,16.65 7.54,-5.53 16.36,-22.9 16.65,-36.07l-5.55 0c-0.28,12.59 -3.76,19.61 -11.1,24.97l-11.1 -19.42c-1.17,14.19 -2.1,3.75 -5.55,16.65l-5.54 0c0,-13.26 -1.88,-11.51 -2.78,-22.2l-5.55 0c0.95,11.43 5.78,25.11 8.33,36.07z"/>
    <path class="fil0" d="M3570.21 3245.33c6.15,-2.23 2.48,-0.2 6.74,-4.37 0.7,-0.69 4.37,-5.44 4.88,-6.21 5.74,-8.46 2.52,-8.49 10.57,-14.39 0,13.08 0.5,12.41 2.77,22.19 12.92,-1.06 14.01,-2.52 16.65,-13.87 -6.71,2.43 -4.04,3.16 -11.1,8.31 -2.37,-4.94 -4.97,-18.06 -5.55,-24.96 -13.06,3.49 -5.86,3.83 -19.42,19.43 0,-14.63 2.88,-13.26 -5.55,-19.43l0 33.3z"/>
    <path class="fil0" d="M3290.02 3220.36c-7.33,0.91 -0.89,-7.48 0.13,-4.05l-0.13 4.05zm-13.87 5.55c0,20.12 7.25,28.96 18.56,18.56 6.13,-5.65 2.78,0.12 3.65,-10.24 -6.38,4.27 -5.59,5.3 -16.65,5.55l0 -11.1c12.67,-1.06 14.02,-5.37 16.65,-16.65l-6.11 -4.99c-6.42,3.08 -16.09,9.45 -16.09,18.87z"/>
    <path class="fil0" d="M3409.31 3239.78c1.11,-13.31 2.54,-19.17 13.88,-22.2 0.86,3.26 2.77,7.57 2.77,8.33 0,10.5 -6.51,13.03 -16.65,13.87zm-5.54 2.77l8.32 5.55c8.84,-4.67 23.11,-12.69 17.38,-28.24 -2.49,-6.77 -0.78,-2.49 -3.08,-5.41l-5.98 -5.19c-10.65,5.64 -16.11,9.4 -16.64,33.29z"/>
    <path class="fil0" d="M3783.83 3217.58c0.96,-7.72 11.82,0.64 2.96,0.65 -1.83,0 -3.7,5.27 -2.96,-0.65zm-8.33 0c0,52.33 19.76,25.79 22.2,16.65 -17.23,9.12 -14.66,5.45 -19.42,2.77 8.91,-16.84 7.55,-5.12 13.98,-14.07 5.31,-7.38 2.54,-18.82 -6.17,-14.23 -4.24,2.24 -3.23,6.24 -10.58,8.89z"/>
    <path class="fil0" d="M3914.22 3239.78c0,-16.92 0.22,-16.44 11.09,-22.2 4.96,8.81 6.09,20.74 -11.09,22.2zm-5.55 5.55c17.67,3.74 33.75,-11.89 19.42,-33.3 -17.07,0 -19.42,6.59 -19.42,33.3z"/>
    <path class="fil0" d="M3309.44 3214.81l0 5.55c11.98,4.6 1.55,-1.95 4.37,12.24 3.84,19.28 16.2,10.97 20.59,9.94l0 -5.55c-15.65,3.65 -16.64,1.8 -16.64,-16.63 12.81,-0.29 9.3,-2.78 19.42,-2.78l-16.65 -2.77 0 -13.87 -8.32 0c3.89,16.67 2.68,11.66 -2.78,13.87z"/>
    <path class="fil0" d="M3986.35 3203.71l0 33.28c0,15.3 15.63,2.42 19.42,-2.77 -10.96,-4.52 1.18,-1.24 -13.87,2.77l0 -41.6c-4.68,3.24 -5.55,0.4 -5.55,8.32z"/>
    <path class="fil0" d="M3950.28 3245.33l5.55 0c0.37,-16.3 5.74,-24.56 19.42,-27.75l0 -5.55c-13.36,1.12 -9.56,4.5 -19.42,11.1 -0.37,-16.8 1.8,-8.13 -5.55,-11.1l0 33.3z"/>
    <path class="fil0" d="M3689.5 3214.81l0 5.55c6.67,2.69 2.21,-3.08 4.78,3.53 1.53,3.93 0.33,6.11 0.99,10.12 2.84,17.46 12.95,9.99 19.19,8.53l0 -5.55c-14.04,3.28 -16.25,0.98 -16.64,-16.63 12.81,-0.29 9.3,-2.78 19.42,-2.78l-16.65 -2.77 -5.55 -13.87c0,15.71 2.43,10.65 -5.55,13.87z"/>
    <path class="fil0" d="M3448.15 3245.33l5.55 0c0,-27.06 9.7,-20.04 19.42,-33.3 -10.47,0.87 -14.97,6.27 -22.2,11.1l-5.55 -11.1c0,13.91 2.78,17.08 2.78,33.3z"/>
    <path class="fil0" d="M3536.93 3237c0,17.91 16.25,-0.81 19.42,-5.54 -7.29,1.69 -8.15,2.52 -13.87,5.54 0,-33.49 7.98,-23.78 -5.55,-24.96l0 24.96z"/>
    <path class="fil0" d="M3534.15 3206.49c9.04,-2.41 11.47,-4.83 13.88,-13.88 -6.18,2.24 -4.29,1.63 -8.02,5.86 -2.75,3.13 -3.73,4.84 -5.86,8.02z"/>
   </g>
   <g>
    <path class="fil0" d="M2576.58 2724.84c-2.01,0 -3.74,-1.33 -6.22,-1.78 -12.52,-2.26 -6.57,-0.06 -14.09,-0.06 -1.74,0 -3.36,-2.45 -4.45,-3.55 -1.51,-1.52 -3.12,-2.66 -4.78,-3.83 -9.06,-6.41 -9.91,-3.59 -18.39,-6.86 -6.62,-2.56 -13.59,-4.84 -21.02,-4.84 -9.19,0 -40.61,-1.28 -48.37,1.5 -3.88,1.39 -6.02,2.9 -10.22,3.94 -15.21,3.77 -22.71,-2.68 -38.94,18.31l-9.76 11.79c-3.49,4.26 -11.01,2.63 -21.38,2.63 -7.42,0 -14.41,-1.85 -20.31,-1.85 -5.3,0 -5.8,0.87 -11.33,-0.99 -3.59,-1.2 -6.74,-2.12 -10.15,-3.39l-6.11 -3.74c-0.34,-0.3 -0.62,-0.52 -0.98,-0.87l-0.93 -0.92c-8.76,-9.35 -11.5,-2.25 -16.26,-7.13 -2.15,-2.2 -2.64,-3.72 -5.25,-5.83 -2.88,-2.33 -10.61,-7.6 -14.26,-7.91 -0.31,13.87 -20.36,28.48 -33.24,29.55 -0.06,2.34 -1.91,8.49 -2.69,10.85 -2.37,7.22 -4.99,14.26 -6.48,21.84 -1.26,6.43 -0.31,5.98 2.2,10.6l21.22 41.57c0.8,1.85 1.45,2.6 2.39,4.39l27.5 49.46c1.03,1.75 1.73,2.83 2.92,4.47 2.12,2.91 3.67,5.74 6.51,7.65 1.44,-0.33 7.3,-3.57 8.97,-4.57 2.97,-1.78 5.67,-3.19 8.69,-4.86 17.41,-9.67 35.31,-18.74 52.55,-28.71 5.77,-3.33 11.56,-6.22 17.62,-9.46 5.47,-2.93 13,-5.61 15.81,-11.27 4.53,-9.13 8.13,-19.33 11.39,-29.24 1.1,-3.35 3.04,-7.24 3.78,-10.38 -1.02,-0.75 0.1,0.1 -0.96,-0.88l-0.64 -0.59c-0.09,-0.08 -0.22,-0.21 -0.32,-0.3 -10.89,-9.86 -14.42,-27.84 -7.74,-41.13 2.3,-4.57 3.35,-5.87 6.73,-9.28 9.83,-9.88 26.5,-13.3 39.67,-6.73 22.96,11.46 27,44.06 5.57,59.36 -7.45,5.32 -15.95,7.1 -25.1,6.34 -4.36,-0.36 -5.95,-1.6 -9.21,-1.87 -0.78,3.36 -2.62,6.43 -3.63,9.92 -2.06,7.12 -8.52,31.48 -14.03,35.22 -1.44,0.98 -3.19,1.52 -4.87,2.53l-18.31 10c-1.72,0.93 -2.8,1.32 -4.52,2.25 -1.91,1.03 -2.67,1.63 -4.72,2.67l-13.54 7.39c-1.84,0.99 -3.12,1.46 -4.92,2.47l-55.21 29.74 24.86 49.75c3.63,-0.13 27.32,-14.63 32.39,-17.12l80.23 -44.12c2.95,-1.58 5.11,-2.83 8.01,-4.31l36.2 -19.82c17.51,-9.51 34.67,-19.79 52.45,-28.81 1.85,-0.94 2.22,-1.31 3.91,-2.25 1.52,-0.85 2.57,-1.22 4.09,-2.07l28.11 -15.59c1.4,-0.72 2.54,-1.19 4.06,-2.1 1.52,-0.91 2.46,-1.44 3.92,-2.24 1.35,-0.74 3.04,-1.56 4.34,-2.43 -0.19,-2.32 -0.8,-3.04 -1.25,-5.52 -2.09,-11.55 1.67,-24.35 9.39,-31.9 16.98,-16.62 45.69,-11.78 56.06,9.54 16.14,33.19 -24.22,65.2 -53.66,41.96 -3.03,-2.39 -2.87,-2.28 -5,-5.46l-15.98 8.65c-2.52,1.46 -5.1,2.95 -7.83,4.48l-8.4 4.52c-1.57,0.84 -2.69,1.27 -4.08,2.08 -1.39,0.81 -2.17,1.36 -3.92,2.24l-72.66 39.39c-13.65,6.87 -26.48,15.22 -40.21,21.96 -3.24,1.59 -5.18,2.87 -8.42,4.51l-72.54 39.51c-4.36,2.33 -20.88,12.19 -24.52,13.03l21.75 42.28c2.48,4.96 4.69,9.65 7.19,14.36 10.83,-5.73 22.25,-11.12 33.24,-16.62 15.84,-7.93 23.37,-1.85 43.71,-1.85 0.67,-7.98 5.37,-14.98 10.61,-20.17 20.76,-20.6 58.34,-4.56 58.34,22.63 0,6.61 -0.48,13.43 -3.71,19.07 -3.69,6.46 -9.17,12.81 -16.52,15.5 -16.56,6.06 -32.37,2.87 -43.02,-11.94 -2.19,-3.04 -4.02,-7.39 -4.97,-11.04 -0.18,-0.68 -0.83,-4.62 -0.86,-4.68 -0.86,-2.04 -3.35,-1.77 -8.48,-1.98 -13.09,-0.55 -22.39,-2.66 -34.69,3.5 -8.03,4.02 -34.89,14.65 -34.89,21.13 0,3.87 4.59,9.81 6.35,13.35 7.74,15.55 16.48,30.15 24.64,45.54 1.22,2.3 2.37,4.22 3.49,6.37l14.05 25.96c3.11,5.84 4.24,11.59 11.19,11.59 2.24,0 2.16,-0.73 4.31,-1.23 1.27,1.91 2.94,3.49 4.76,5.09 12.09,10.67 19.18,-3.76 22.84,-13.81 1.03,-2.83 1.55,-4.56 3.79,-6.06 1.92,3.63 2.64,8.57 3.63,13 0.71,3.19 1.42,3.12 2.25,5.75 0.69,2.19 1.02,5 1.51,7.11 2.55,-0.68 26.59,-22.17 52.86,-2.38 3.46,2.61 2.63,3.98 6.85,3 0,-19.66 -1.61,-16.85 11.86,-28.15 5.18,-4.34 -0.66,-11.04 5.39,-21.09 3.98,-6.6 9.48,-7.96 9.83,-17.25 0.38,-10.06 2.46,-6.63 2.46,-11.7 0,-4.83 -1.85,-7.34 -1.85,-12.31 0,-3.61 8.3,-6.07 12.31,-6.16 0.53,-6.36 3.3,-7.59 8.67,-7.96 6.17,-0.43 7.36,-3.83 9.78,-7.46 1.45,-2.17 4.41,-3.63 6.8,-4.89 -0.7,-8.46 -2.75,-5.87 2.36,-14.26 1.43,-2.35 2.16,-4.83 2.49,-7.98 0.6,-5.79 0.07,-14.73 0.07,-20.86 5.01,-0.42 7.97,-5.44 12.8,-6.28 1.46,-0.25 4.29,-0.38 5.93,-0.84 5.81,-1.64 4.06,-9.16 5.72,-13.98 3.29,-9.52 -1.06,-8.62 -1.06,-10.91 0,-2.36 1.74,-12.62 3.5,-14.35 4.21,-4.16 5.69,-0.37 9.83,-8.64 2.45,-4.9 4.59,-6.44 4.53,-13.94 -0.04,-3.92 0.89,-4.52 1.22,-8.02 0.33,-3.57 -0.68,-5.51 0.78,-8.45 1.12,-2.25 2.59,-2.85 3.36,-5.26 1,-3.17 0.62,-4.19 2.54,-6.69 6.09,-7.93 0.24,-8.49 6.66,-11.81 4.74,-2.46 8.68,-10.93 11.91,-15.8 1.26,-1.89 2.57,-4.93 4.93,-4.93 5.96,0 6.52,6.91 14.93,-1.69 5.03,-5.13 16.43,-11.19 23.19,-13.75 8.48,-3.21 -0.5,-11.77 0.25,-16.92l2.69 -9.71c2.22,-4.64 -0.69,-9.58 0.78,-14.59 2.83,-9.61 1.02,-5.21 -4.77,-10.57 -8.43,-7.81 -0.52,-9.1 -24.14,-9.1 -1.21,-2.52 -2.29,-17.56 -2.98,-21.65l-3.78 -21.46c-1.37,-8.04 -7.22,-15.78 -11.72,-22.14l-7.21 -10.03c-3.74,-5.1 -5.83,-10.61 -9.66,-15.58 -3.96,-5.13 -9.91,-3.33 -17.61,-3.33 -7.83,0 -9.23,11.54 -14.81,12.28 -2,0.26 -4.67,-0.15 -6.73,0.04 -3.85,0.35 -12.09,3.33 -14.29,6.02 -2.08,2.56 -3.39,5.31 -5.86,7.68 -2.96,2.84 -4.41,3.39 -8.35,5.19 -4.3,1.98 -4.09,5.44 -8.77,11.55 -1,1.31 -1.87,2.79 -3.98,2.79z"/>
    <path class="fil0" d="M1950.49 3167.48c1.51,6.48 0.61,14.22 0.61,20.93 3.11,0 4.72,-0.65 8.61,-0.62 9.28,0.05 20.49,1.04 29.5,-0.05 3.63,-0.44 3.09,-1.8 8.03,-1.82 3.26,-0.02 6.66,0.15 9.9,0.05 11.28,-0.34 25.72,-2.06 36.09,2.66 6.33,2.89 16.6,0.49 23.17,7l13.63 11.61c4.13,3.2 9.42,9.26 12.18,13.68 1.35,2.15 2.19,4.41 3.55,6.3 1.51,2.1 3.4,3.19 4.65,5.82 2.26,4.8 4.87,8.82 6.36,13.95 1.34,4.61 3.87,5.19 7.59,7.18 1.57,0.83 2.01,1.17 4.19,1.35 0,5.12 -0.38,2.08 -2.46,4.93 0.61,1.26 1.61,4.08 1.78,5.61 0.65,6.02 -0.09,4.07 2.43,9.27 3.03,6.26 4.39,13.76 6.96,20.12 3.85,9.52 1.14,3.31 5.58,10.43 7,11.22 22.33,26.6 36.19,26.6l13.58 -1.2c5.29,-0.43 -0.27,-1.54 5.46,-1.93 2.56,-0.18 5.25,0.27 7.91,-0.1 1.85,-0.26 3.87,-0.98 6.3,-1.09 7.74,-0.35 6.32,-0.27 13.3,-2.09 2.28,-0.59 5.04,-0.37 7.63,-0.37 1.04,-1.55 1.96,-2.78 2.46,-4.93l7.39 0c0.53,2.28 1.02,1.72 1.23,4.31 5.61,0 8.18,-2.74 12.47,-3.54 4.45,-0.82 10.59,-0.26 14.42,-1.59l12.76 -3.25c15.94,-3.48 26.06,-1.05 29.06,-1.68 3.02,-0.63 3.96,-2.2 6.4,-3.49 0,-2.34 0.35,-3.26 0.45,-4.48 0.18,-2.14 -0.22,-2.3 -0.42,-4.78 -0.35,-4.3 -1.62,-4.22 -2.49,-7.98 3.74,0 3.19,0.6 5.31,2.69 0.59,0.58 1.01,0.94 1.6,1.48 1.86,1.67 4.92,3.84 7.86,3.84 2.88,0 1.1,-3.44 4.54,-5.92 4.36,-3.14 3.65,-4.76 6.01,-9.38 1.81,-3.54 3.01,-7.29 5.63,-10.38 1.72,-2.04 3.89,-3.01 4.79,-5.67 1.53,-4.51 0.46,-13.59 2.04,-18.9 0.81,-2.73 2.84,-5.38 2.84,-7.62 0,-5.96 -3.69,0.33 -3.69,-16 0,-5.54 6.1,-7.52 9.27,-9.81 2.67,-1.94 1.96,-3.31 4.11,-5.74 6.06,-6.85 16.76,-20.53 23.56,-25.08 -5.22,-9.88 -12.69,-21.51 -18.59,-31.28l-14.02 -23.54c-4.52,-7.84 -8.92,-16.07 -13.93,-23.62 -8.45,-12.71 -14.94,-26.68 -23.39,-39.4 -1.26,-1.89 -4.09,-6.34 -4.56,-8.37 -2.57,0.6 -10.41,4.81 -12.81,6.28 -8.63,5.25 -28.05,14.17 -38.29,19.58 0.35,4.28 2.54,7.84 4.13,11.87 1.59,4.06 2.7,7.67 4.31,11.7 1.96,4.89 8.18,19.35 8.18,24.45 0,11.8 -2.75,28.78 -7.39,37.55 2.46,1.31 5.01,1.97 7.6,3.48 18.61,10.83 15.01,42.09 -5.53,52.15 -27.94,13.69 -56.18,-20.15 -35.59,-46.67 3.22,-4.15 9.57,-8.38 15.51,-9.73 10.67,-2.43 7.11,0.88 11.46,-13.78 1.65,-5.56 4.08,-14.58 4.08,-21.16 0,-6.82 -8.31,-25.74 -12.26,-32.68 -4.94,-8.68 -10.7,-7.36 -18.61,-3.73 -8.82,4.05 -17.46,9.02 -26.57,12.83 -12.61,5.28 -11.18,21.39 -13.08,33.09 -0.37,2.26 -0.85,3.8 -0.9,5.87 9.51,0.79 19.08,16.62 19.08,25.86 0,13 -6.3,23.84 -18.05,29.35 -6.98,3.28 -17.25,3.28 -24.24,0l-8.9 -5.87c-18.36,-16.75 -8.27,-51.8 22.25,-51.8 1.34,-16.1 3.53,-35.33 16.97,-44.59 8.54,-5.89 21.96,-9.53 31.88,-14.3 3.02,-1.44 7.96,-4.46 10.87,-5.14 -0.7,-3 -2.41,-4.51 -3.96,-7.11l-12.91 -20.33c-2.86,-4.37 -16.08,-23.97 -16.98,-27.34l-87.68 46.53c-2.81,1.69 -5.29,2.53 -8.1,4.22 -15.39,9.21 -32.23,16.58 -47.69,25.57l-48.26 25.62c-5.46,3.02 -10.72,5.46 -16,8.62l-48.37 25.5z"/>
    <path class="fil0" d="M2006.51 2767.94l0.66 10.47c0.07,3.82 -1.28,6.5 -1.28,9.84 0,4.83 1.23,8.28 1.23,13.54 0,0.15 -1.85,1.97 -1.85,6.78 0,6.61 6.67,4.39 -1.39,13.39 -3.21,3.58 -3.76,12.02 -4.71,16.83 -2.52,12.74 -3.31,8.13 6.56,17.32 0.86,0.8 1.28,1.37 2.14,2.17 1.05,0.96 1.72,1.22 2.43,1.88 2.09,1.96 1.27,3.52 2.17,6.45 0.71,2.32 1.79,3.37 2.02,5.98 0.46,5.15 -0.73,10.33 2.54,14.7 4.09,5.46 3.74,7.31 1.33,14.39 -0.69,2.02 -1.27,5.07 -2.01,6.61 -4.52,0 -7.78,-0.97 -9.63,2.06 -9.78,16.02 7.69,11.51 0.14,22.3 -2.09,2.98 -2.88,11.19 -6.98,14.57 -2.66,2.19 -8.13,0.85 -11.09,3.07 -3.81,2.85 -1.98,6.35 -1.98,11.56 -2.65,0.71 -4.33,3.62 -5.9,5.8l-4.48 7.37c-1.76,4.21 5.21,0.17 16.35,6.11 9.38,5.01 18.04,15.78 18.04,29.97 2.06,0.99 4.74,1.52 7.43,1.8 3.07,0.33 5.5,0.93 8.04,1.19 9.7,1.01 20.39,0.64 30.08,0.08 6.51,-0.38 16.78,-7.81 22.99,-10.87 14.94,-7.39 28.78,-16.01 43.71,-23.39 2.83,-1.4 4.69,-2.61 7.18,-3.91l22.58 -11.89c1.69,-0.91 1.75,-1.13 3.54,-2 15.67,-7.56 10.39,-8.59 -2.11,-31.65 -5.65,-10.44 -6.95,-11.67 -20.39,-15.94 -4.12,-1.31 -15.29,-4.91 -19.02,-5 -2.3,9.87 -18.31,19.09 -28.93,19.09 -15.54,0 -27.14,-6.62 -33.66,-20.52 -8.09,-17.25 0.22,-37.59 16.82,-45.58 13.2,-6.35 28.46,-3.18 39.16,6.22 8.93,7.85 10.31,18.24 10.31,29.09 0,2.12 -0.46,2.38 -0.62,4.31 3.49,0.81 6.69,1.72 10.25,2.68 12.42,3.32 18.03,3.66 27.16,13.47 6.78,7.29 15.28,23.31 20.46,33.1 3.8,-0.89 11,-5.2 14.57,-6.98 1.48,-0.74 2.19,-1.1 3.63,-1.91 1.61,-0.89 2.11,-0.98 3.74,-1.8 1.85,-0.92 1.57,-0.97 3.65,-1.89l14.3 -7.25c5.09,-2.77 13.44,-7.91 18.59,-9.11 -0.36,-1.57 -2.94,-6.05 -3.95,-7.74 -9.6,-16.07 -20.12,-37.58 -29.88,-54.46l-46.6 -85.15c-4,-7.95 -8.97,-15.41 -12.94,-23.38 -6.59,-13.19 -14.38,-25.53 -21.13,-38.58l-16.97 -31.05c-5.77,-9.66 -2.15,-7.13 -18.11,-7.13 -7.65,0 -14.59,2.09 -21.71,4.15 -2.61,0.76 -1.63,0.41 -3.39,2.15 -2.81,2.8 -6.07,3.85 -8.91,7.09l-8.65 7.97c-6.06,4.37 -2.7,9.89 -3.6,17.94 -0.28,2.46 -0.57,7.06 -1.06,9.41 -0.85,4.11 -1.32,4.34 -3.26,7.2 -1.68,2.48 -1.5,3.93 -3.78,6.68 -2.13,2.57 -2.43,3.79 -4.89,6.2 -2.21,2.17 -2.97,3.13 -4.96,5.51 -4.5,5.38 -13.98,10.7 -13.98,18.65z"/>
    <path class="fil0" d="M2052.07 3026.5l-27.11 -1.21c-5.25,-0.44 -10.55,-1.87 -15.99,-1.87 -3.96,17.01 -32.75,34.13 -55.84,14.6l-3.96 -4.05c-1.67,-1.64 0.54,-0.48 -1.76,-1.31l1.85 8c0,2.26 -3.69,5.76 -3.69,14.16 0,6.59 3.6,3.89 1.59,15.14 -2.38,13.34 -4.2,9.97 -1.51,22.34 0.41,1.88 0.57,4.2 0.54,6.85 -0.09,7.48 0.57,6.69 3.58,11.2 3.78,5.65 0.64,4.09 -0.31,10.61 -0.49,3.39 1.03,9.05 1.03,13.29 0,2.19 -1.23,3.44 -1.23,4.93l0.58 16.72c0.36,3.17 1.52,2.17 3.12,1.25l74.69 -39.93c1.57,-0.84 2.69,-1.27 4.08,-2.08 13.37,-7.76 31.44,-16.59 45.77,-24.41l16.84 -9.01c3.24,-1.61 5.17,-2.92 8.41,-4.52l16.41 -8.83c17.55,-9.13 41.68,-22.76 58.29,-30.98 4.31,-2.13 22.93,-12.67 25.44,-13.34 -0.23,-2.74 -1.96,-5.24 -3.2,-7.27l-7.88 -14.28c-4.98,-9.65 -14.01,-24.32 -19.7,-35.09 -0.63,0.3 -1.13,0.43 -1.74,0.72l-100.65 53.26c-5.58,2.79 -9.46,5.12 -17.65,5.12z"/>
    <path class="fil0" d="M2110.55 2671.28c0.2,2.41 10.11,19.79 12.05,23.04 1.54,2.56 2.7,4.94 4.15,7.55l60.34 110.81c0.9,1.67 1.44,2.3 2.27,3.89 11.85,22.78 25.99,46.59 37.54,68.96 1.33,2.58 2.62,4.68 4.1,7.6 0.84,1.66 1.28,2.21 2.03,3.5 0.81,1.39 1.24,2.51 2.08,4.08l4.13 7.56c1.55,2.67 2.8,5.22 4.28,8.03 3.31,-0.28 16.91,-8.37 20.94,-10.46l33.85 -18.48 -56.23 -101.37c-1.04,-1.94 -1.79,-2.6 -2.65,-4.74 -2.25,-5.52 1.52,-18.52 2.73,-23.3 1.29,-5.12 5.3,-17.56 5.67,-22.03 -3.86,-0.32 -9.59,-4.43 -11.51,-5.11l-9.63 -1.79c-12.83,0.83 -13.33,-13.79 -25.55,-28.9 -1.27,-1.57 -2.75,-2.87 -4.24,-4.37 -1.71,-1.72 -17.07,-13.89 -19.49,-14.35 -4.09,-0.79 -5.63,4.39 -13.18,-0.38 -2.41,-1.52 -9.63,-3.72 -14.55,-5.77 -4.28,-1.79 -4.68,-2.8 -9.74,-3.8 -13.1,-2.6 0.99,-7.24 -29.39,-0.16z"/>
    <path class="fil0" d="M2311.86 3056.67c0.71,3.06 23.09,39.7 27.12,46.76l44.02 74.18c0.89,1.55 1.39,3.42 3.35,3.42 1.19,0 10.18,-3.1 11.2,-3.57 2.36,-1.1 1.73,-1.84 2.79,-4.6 3.75,-9.78 -0.63,-13.25 8.76,-14.02 5.08,-0.42 5.54,-4.65 8.65,-6.74 -0.96,-1.44 -2.6,-3.74 -3.08,-5.54 2.27,-0.53 7.18,-3.51 9.85,-4.93 -0.98,-4.24 -4.97,-9.97 -6.98,-13.94l-16.29 -31.12c-0.78,-1.34 -1.3,-2.2 -1.97,-3.57l-29.57 -55.99c-1.32,-2.27 -2.99,-4.5 -3.67,-7.42 -2.94,0.25 -4.8,1.89 -6.8,3.05l-33.83 17.26c-3.07,1.52 -10.75,6.13 -13.54,6.78z"/>
    <path class="fil0" d="M2306.94 3003.72c0.19,2.24 2.23,5.06 3.28,7.18 1.26,2.52 2.28,4.67 3.48,6.98l7.39 14.15 13.75 -7.19c2.57,-1.27 4.39,-2.33 6.89,-3.57l7.07 -3.4c-0.95,-4.07 -13.45,-25.26 -14.16,-28.32 -2.33,1.24 -4.28,2.46 -6.77,3.69 -2.36,1.18 -4.44,2.23 -6.98,3.49 -3.86,1.91 -10.07,6.07 -13.95,6.98zm20.86 12.28c2.03,0 3.82,-1.2 3.82,-3.12 0,-1.49 -1.05,-2.46 -2.63,-3.12 -1.09,-0.46 -1.8,-0.61 -1.8,-1.07 0,-0.35 0.39,-0.63 0.94,-0.63 0.48,0 1.26,0.23 1.56,0.76l1.55 -1.49c-0.39,-1 -1.6,-1.72 -3.14,-1.72 -1.92,0 -3.58,1.25 -3.58,3 0,1.52 1.1,2.37 2.38,2.92 0.99,0.44 2.02,0.9 2.02,1.42 0,0.41 -0.56,0.62 -1.13,0.62 -0.85,0 -1.63,-0.37 -2.05,-1l-1.63 1.59c0.51,1.12 2.02,1.85 3.68,1.85z"/>
    <path class="fil0" d="M2260.76 2982.18l14.16 27.7c3.04,-0.7 22.6,-11.46 27.7,-14.16 -0.61,-2.61 -13.17,-25.84 -14.16,-27.7 -9.19,4.86 -18.52,9.3 -27.7,14.16zm21.78 12.78c1.54,0 2.82,-0.61 3.79,-1.48l-1.53 -2.04c-0.65,0.58 -1.41,0.98 -2.26,0.98 -1.44,0 -2.8,-1.15 -2.8,-2.72 0,-1.55 1.3,-2.73 2.85,-2.73 0.74,0 1.57,0.37 2.19,0.93l1.54 -1.98c-1.04,-0.94 -2.43,-1.51 -3.74,-1.53 -3.15,0 -5.57,2.3 -5.57,5.29 0,3.17 2.66,5.28 5.52,5.28z"/>
    <path class="fil0" d="M2207.82 2964.32c1.35,5.81 13.21,23.69 13.54,27.7 3.68,-0.08 4.78,-1.73 7.38,-3.09l20.94 -10.46c-0.19,-2.24 -2.22,-5.06 -3.28,-7.18 -1.35,-2.72 -2.27,-4.26 -3.69,-6.78 -2.63,-4.69 -4.36,-9.52 -7.19,-13.74 -2.37,0.2 -17.79,8.39 -20.67,10.11 -2.35,1.41 -4.26,2.79 -7.03,3.43zm22.61 2.74l0 4.93 -5.18 -5.02 -0.86 0 0 10.22 2.68 0 0 -4.94 5.2 5.04 0.85 0 0 -10.22 -2.69 0z"/>
    <path class="fil0" d="M2268.77 2929.85l14.16 27.7c3.64,-0.85 26.37,-12.95 27.7,-14.78l-6.97 -13.35c-2.63,-4.69 -4.37,-9.52 -7.19,-13.74l-20.72 10.67c-1.91,0.96 -5.39,3.07 -6.98,3.49zm23.33 11.89l2.94 0 -4.7 -10.23 -1.27 0 -4.7 10.23 2.94 0 0.51 -1.18 3.78 0 0.51 1.18zm-3.44 -3.14l1.04 -2.4 1.04 2.4 -2.07 0z"/>
    <path class="fil0" d="M1959.11 3008.65c0,9.92 7.07,17.85 15.39,17.85l3.69 0c6.96,0 14.78,-7.81 14.78,-14.78 0,-5.78 -0.04,-10.27 -5.37,-14.94 -10.81,-9.48 -28.49,-1.22 -28.49,11.87z"/>
    <path class="fil0" d="M2436.22 2762.4l0 3.08c0,7.46 7.93,15.39 15.39,15.39 5.81,0 8.58,-0.24 13.09,-4.76 1.52,-1.52 2.33,-2.02 3.34,-4.04 5.72,-11.37 -0.65,-25.06 -16.44,-25.06 -7.46,0 -15.39,7.93 -15.39,15.39z"/>
    <path class="fil0" d="M2253.99 3034.5l14.16 27.09c4.09,-0.34 24.35,-12.65 27.7,-13.54 -0.26,-3.1 -8.2,-16.38 -10.27,-20.51 -1.11,-2.23 -2.74,-4.91 -3.28,-7.19 -2.8,0.23 -11.57,5 -14.28,6.65l-14.04 7.5zm20.93 11.78c3.15,0 5.56,-2.29 5.56,-5.3 0,-3.04 -2.41,-5.33 -5.55,-5.33 -3.14,0 -5.55,2.3 -5.55,5.33 0,3.01 2.4,5.3 5.54,5.3zm0.01 -2.57c-1.61,0 -2.83,-1.2 -2.83,-2.75 0,-1.56 1.23,-2.76 2.83,-2.76 1.6,0 2.83,1.2 2.83,2.76 0,1.56 -1.23,2.75 -2.83,2.75z"/>
    <path class="fil0" d="M2468.85 3001.87c0,7.2 6.84,16.01 14.78,16.01 6.03,0 8.65,0.28 13.72,-4.75 9.5,-9.44 4.87,-27.87 -13.1,-27.87 -8.15,0 -15.39,8.31 -15.39,16.62z"/>
    <path class="fil0" d="M2081.61 2910.76l4.31 0c7.15,0 14.78,-7.63 14.78,-14.78l0 -3.08c0,-6.96 -7.81,-14.78 -14.78,-14.78 -6.08,0 -8.76,0.32 -13.41,5.06 -12.02,12.26 0.98,27.57 9.1,27.57z"/>
    <path class="fil0" d="M2615.98 2793.79c0,8.99 6.98,16.63 14.78,16.63l3.08 0c7.8,0 14.78,-7.63 14.78,-16.63 0,-20.9 -32.63,-21.61 -32.63,0z"/>
    <path class="fil0" d="M2162.88 3181.64c0,4.26 2.78,9.3 5.05,11.57 15.49,15.49 38.37,-7.87 23.14,-23.14 -5.07,-5.08 -11.2,-6.06 -17.98,-3.46 -1.95,0.74 -3.79,2.19 -5.15,3.46 -2.27,2.11 -5.06,7.44 -5.06,11.57z"/>
    <path class="fil0" d="M2234.91 2705.76c0,6.82 4.62,12.6 9.33,14.68 7.04,3.11 13.26,2.02 18.63,-3.35 6.74,-6.73 5.95,-17.09 -0.1,-23.19 -9.77,-9.83 -27.85,-3.18 -27.85,11.85z"/>
    <path class="fil0" d="M2252.76 3216.11c5.26,0 8.56,0.43 13.42,-4.43 10.51,-10.51 1.81,-29.41 -14.59,-26.3 -8.67,1.64 -14.4,11.33 -11.33,20.46 1.42,4.22 7.09,10.28 12.5,10.28z"/>
   </g>
  </g>
 </g>
</svg>
