<?xml version="1.0" encoding="UTF-8"?>
<!DOCTYPE svg PUBLIC "-//W3C//DTD SVG 1.1//EN" "http://www.w3.org/Graphics/SVG/1.1/DTD/svg11.dtd">
<!-- Creator: CorelDRAW 2021 (64-Bit) -->
<svg xmlns="http://www.w3.org/2000/svg" xml:space="preserve" width="1.958in" height="0.5in" version="1.1" style="shape-rendering:geometricPrecision; text-rendering:geometricPrecision; image-rendering:optimizeQuality; fill-rule:evenodd; clip-rule:evenodd"
viewBox="0 0 1958 500"
 xmlns:xlink="http://www.w3.org/1999/xlink"
 xmlns:xodm="http://www.corel.com/coreldraw/odm/2003">
 <defs>
  <style type="text/css">
   <![CDATA[
    .fil1 {fill:#188906}
    .fil0 {fill:#19910C}
   ]]>
  </style>
 </defs>
 <g id="Layer_x0020_1">
  <metadata id="CorelCorpID_0Corel-Layer"/>
  <g id="_1555282291920">
   <path class="fil0" d="M827.33 333.3c41.44,0 32.77,10.17 32.77,-50.11 0,-10.7 -1.93,-11.43 -1.93,-21.2 2.56,2.94 0.78,0.79 3.21,4.5l41.32 58.91c7.38,10.18 3.77,7.91 30.64,7.91 4.44,0 5.78,-1.34 5.78,-5.79l0 -102.14c0,-8.73 -9.88,-5.79 -30.83,-5.79l0 71.32 -25.04 -36.63c-29.42,-41.89 -18.42,-34.69 -55.91,-34.69l0 113.72z"/>
   <path class="fil0" d="M1382.41 333.3c41.44,0 32.76,10.17 32.76,-50.11 0,-10.7 -1.93,-11.43 -1.93,-21.2 9.78,11.25 44.92,71.31 53.96,71.31 18.82,0 26.98,2.61 26.98,-5.79l0 -102.14c0,-8.73 -9.88,-5.79 -30.83,-5.79l0 71.32c-2.41,-2.77 -0.78,-0.57 -3.16,-4.55l-41.08 -59.15c-7.89,-10.7 -8.34,-7.62 -36.7,-7.62l0 113.72z"/>
   <path class="fil0" d="M827.33 144.42l32.77 0 0 -50.11c0,-10.7 -1.93,-11.42 -1.93,-21.2 1.74,2.02 0.07,-0.42 2.44,3.35l8.71 14.42c5.74,8.48 35.06,46.15 37.03,53.55l32.77 0 0 -111.78 -30.83 0 0 69.38c-1.77,-2.03 -0.39,-0.26 -2.45,-3.34l-22.06 -31.89c-4.87,-6.52 -7.93,-11.28 -12.94,-17.91 -15.26,-20.22 -1.88,-16.24 -43.5,-16.24l0 111.78z"/>
   <path class="fil0" d="M1268.69 283.19l0 -13.49c0,-33.03 55.89,-33.03 55.89,0 0,17.53 -1.35,38.55 -28.91,38.55 -16.98,0 -26.99,-15.02 -26.99,-25.06zm-32.76 -7.71c0,33.99 29.94,59.75 59.74,59.75 32.47,0 61.68,-26.09 61.68,-57.81 0,-48.39 -59.2,-81.27 -102.65,-42.91 -8.96,7.91 -18.77,24.94 -18.77,40.97z"/>
   <path class="fil0" d="M1220.51 92.38c0,-10.87 -0.39,-18.91 7.31,-27.38 11.61,-12.77 48.58,-17.95 48.58,27.38 0,37.51 -55.89,38.48 -55.89,0zm-32.76 -3.86c0,30.04 29.06,57.82 53.96,57.82 19.78,0 35.25,-1.07 51.15,-18.22 40.36,-43.52 -1.39,-97.41 -37.67,-97.41 -23.36,0 -31.97,0.06 -50.63,18.75 -9.04,9.07 -16.82,21.85 -16.82,39.06z"/>
   <path class="fil0" d="M1567.43 244.64l3.85 0c0.35,15.24 10.41,30.48 11.57,44.33l-26.98 0c1.32,-15.94 10.23,-28.39 11.57,-44.33zm-55.9 88.66l30.84 0c0.38,-4.55 4.22,-17.94 5.78,-21.2l42.4 0c1.76,7.56 4.13,14.1 5.78,21.2l30.84 0c-4.24,-18.19 -13.2,-38.64 -19.02,-56.14l-19.52 -57.58 -38.54 0c-3.64,7.59 -6.36,18.75 -9.64,26.99l-20.02 57.07c-2.76,7.89 -8.25,21.96 -8.89,29.66z"/>
   <path class="fil0" d="M1012.36 244.64l3.85 0c0.34,15.24 10.41,30.48 11.57,44.33l-26.99 0c1.33,-15.94 10.24,-28.39 11.57,-44.33zm-55.89 88.66l30.83 0c0.38,-4.55 4.22,-17.94 5.78,-21.2l42.41 0c1.76,7.56 4.13,14.1 5.78,21.2l30.84 0c-4.24,-18.19 -13.2,-38.64 -19.03,-56.14l-19.52 -57.58 -38.55 0 -19.52 55.65c-4.03,12.11 -18.18,47.85 -19.03,58.07z"/>
   <path class="fil0" d="M1012.36 55.76c6.11,4.47 3.23,5.12 8.91,21.93 2.61,7.73 5.81,15.92 6.52,24.33l-28.91 0c2.91,-6.06 13.32,-38.44 13.49,-46.26zm-55.89 88.66l30.83 0c1.34,-5.73 3.6,-16.65 5.78,-21.2l42.41 0c1.34,5.73 3.6,16.65 5.78,21.2l30.84 0 -28.67 -83.12c-2.94,-8.81 -6.28,-21.14 -9.88,-28.67l-40.48 0c-1.13,13.62 -35.73,101.2 -36.61,111.78z"/>
   <path class="fil0" d="M1380.48 111.65c0,7.53 -10.91,17.21 -28.9,5.79 -6.56,-4.17 -5.68,-7.55 -13.49,-9.64 -2.43,10.4 -10.74,15.03 -11.57,25.06 5.87,1.57 7.7,4.93 14.7,8.43 21.73,10.91 68.18,8.67 68.18,-35.41 0,-36.23 -48.19,-25.59 -48.19,-42.4 0,-5.01 6.88,-9.63 9.64,-9.63 11.31,0 16.44,7.33 25.06,9.63 0.7,-8.5 5.46,-13.49 7.71,-23.13 -38.91,-26.05 -82.4,2.27 -71.08,36.3 8.74,26.28 47.95,16.25 47.95,35.01z"/>
   <path class="fil0" d="M1081.74 88.52c0,30.33 23.63,57.82 53.97,57.82 25.13,0 14.7,-1.57 32.76,-5.78l0 -34.69c-4.61,3.09 -13.5,13.49 -25.06,13.49 -35.96,0 -37.24,-49.86 -12.7,-58.96 20.56,-7.62 26.49,3.23 37.76,10.78l0 -34.69c-18.06,-4.21 -7.63,-5.78 -32.76,-5.78 -30.33,0 -53.97,27.48 -53.97,57.81z"/>
   <path class="fil0" d="M1074.03 248.49l25.06 0 0 84.81c21.93,0 32.76,3.11 32.76,-5.79l0 -79.02c29.57,0 25.06,4.41 25.06,-23.12 0,-4.44 -1.35,-5.79 -5.79,-5.79l-77.09 0 0 28.91z"/>
   <polygon class="fil0" points="1644.52,333.3 1713.9,333.3 1713.9,304.39 1675.35,304.39 1675.35,219.58 1644.52,219.58 "/>
   <polygon class="fil0" points="1178.11,333.3 1208.95,333.3 1208.95,219.58 1178.11,219.58 "/>
   <path class="fil0" d="M898.65 366.06l0 1.93 765.14 0 0 -1.93c-130.63,0 -256.04,-1.92 -385.46,-1.92 -127.52,0 -250.98,1.92 -379.68,1.92z"/>
   <path class="fil0" d="M1567.43 420.03c4.87,-10.17 3.15,-11.88 13.48,-17.35 1.74,7.43 4.26,10.81 5.79,17.35l5.78 0c0.25,-11.14 1.04,-6.22 5.75,-13.53 2.67,-4.14 5.3,-9.17 5.81,-15.39 -9.92,2.65 -3.36,1.3 -7.13,10.22 -3.29,7.81 -4.04,2.27 -6.37,10.98 -9.29,-6.8 -3.44,-13.33 -11.56,-19.27 -3.15,11.77 -8.94,9.44 -11.56,19.27 -10.61,-7.77 0.52,-13.75 -9.64,-21.2 0,13.3 1.71,23.6 9.64,28.91z"/>
   <path class="fil0" d="M1415.17 414.24c0.49,-1.02 3.87,-15.41 9.63,-15.41 11.09,0 5.74,14.14 -9.63,15.41zm-1.93 -3.85c0,20.13 11.32,3.39 19.27,-1.93 7.78,29.31 -17.33,17.35 -17.34,17.35 3.28,12.31 21.2,7.9 21.2,-5.78 0,-14.92 0.97,-10.69 -1.93,-23.13l-13.49 -1.93c-3.59,5.37 -7.71,6.66 -7.71,15.42z"/>
   <path class="fil0" d="M1690.78 416.17c0,-5.81 1.04,-17.34 5.78,-17.34 14.76,0 -2.94,15.44 -5.78,17.34zm13.49 -19.28c-5.47,-2.63 -9.96,-4.15 -13.65,1.74 -4.11,6.54 -7.51,31.85 7.51,17.18 0.05,-0.05 2.44,-2.87 2.65,-3.13 0.26,-0.3 0.62,-0.78 0.85,-1.07l2.63 -3.15c0.13,5.87 0.87,7.03 1.93,11.57 5,-3.67 2.07,-5.65 2.61,-27.32 0.05,-2.05 -0.58,-4.26 -0.69,-9.31 -5.85,4.29 -3.86,3.33 -3.86,13.49z"/>
   <path class="fil0" d="M1322.38 402.91c5.39,-2.93 5.88,-3.92 13.77,-4.09 -0.71,8.5 -1.64,7.77 -9.63,9.63l-4.14 -5.55zm-5.5 17.11c5.58,-4.09 3.86,-1.57 3.86,-11.57 8.42,5.64 18.3,23.83 23.13,5.78 -3.71,2.59 -10,9.26 -13.49,-3.85 10.89,-2.54 16.5,-15.42 0,-15.42 -4.63,0 -5.67,3.12 -9.63,5.78 0,-10.26 2.13,-11.03 -3.86,-15.41l0 34.69z"/>
   <path class="fil0" d="M1129.93 420.03l3.85 0c0.2,-8.71 1.93,-7.66 1.93,-17.35 3.53,2.37 7.84,5.75 11.34,7.93l6.02 3.62c4.06,3.74 0.68,3.75 5.76,5.8 0,-12.82 1.92,-16.69 1.92,-28.91l-3.85 0c0,4.24 -0.08,6.59 -0.55,10.66 -0.46,4.19 -0.22,3.1 -1.39,8.61 -22.46,-11.89 -12.76,-12.33 -23.13,-19.28 0,12.22 -1.93,16.09 -1.93,28.91z"/>
   <path class="fil0" d="M1488.41 394.97c0,13.78 -2.14,15.85 0,25.06 5.26,-3.85 3.08,-2.37 6.43,-9.04 9.52,-18.96 7.19,1.11 7.2,1.2 0.67,7.44 1.32,6.26 5.65,7.84 -2.91,-12.45 -1.93,-8.21 -1.93,-23.13 -6.97,0.58 -5.78,0.19 -10.89,6.45l-2.6 3.19c0,-3.46 0.41,-10.46 0.01,-13.5 -0.97,-7.38 -1.52,-6.15 -5.79,-7.7 1,4.32 1.92,4.43 1.92,9.63z"/>
   <path class="fil0" d="M1226.3 420.03l3.85 0c0.69,-8.22 1.06,-9.79 7.71,-11.57 1.39,5.98 2.46,5.58 3.86,11.57 5.23,-3.84 11.36,-15.91 11.56,-25.06l-3.85 0c-0.19,8.74 -2.61,13.62 -7.71,17.35l-7.71 -13.49c-0.81,9.86 -1.46,2.61 -3.85,11.56l-3.85 0c0,-9.2 -1.31,-7.99 -1.93,-15.42l-3.86 0c0.66,7.94 4.02,17.44 5.79,25.06z"/>
   <path class="fil0" d="M1376.62 420.03c4.28,-1.55 1.72,-0.14 4.69,-3.03 0.49,-0.48 3.03,-3.78 3.39,-4.31 3.99,-5.88 1.75,-5.9 7.35,-10 0,9.09 0.35,8.62 1.93,15.41 8.98,-0.74 9.73,-1.75 11.57,-9.63 -4.67,1.69 -2.81,2.19 -7.71,5.78 -1.65,-3.43 -3.45,-12.54 -3.85,-17.34 -9.07,2.43 -4.07,2.67 -13.49,13.5 0,-10.17 2,-9.2 -3.85,-13.5l0 23.13z"/>
   <path class="fil0" d="M1181.96 402.68c-5.09,0.63 -0.62,-5.2 0.09,-2.81l-0.09 2.81zm-9.64 3.85c0,13.98 5.04,20.11 12.89,12.89 4.26,-3.93 1.93,0.08 2.53,-7.11 -4.43,2.96 -3.88,3.68 -11.56,3.85l0 -7.71c8.8,-0.74 9.74,-3.73 11.56,-11.57l-4.24 -3.46c-4.46,2.14 -11.18,6.56 -11.18,13.11z"/>
   <path class="fil0" d="M1264.84 416.17c0.77,-9.24 1.76,-13.32 9.64,-15.42 0.6,2.26 1.92,5.26 1.92,5.79 0,7.29 -4.52,9.05 -11.56,9.63zm-3.85 1.93l5.78 3.85c6.14,-3.25 16.06,-8.82 12.07,-19.62 -1.73,-4.7 -0.55,-1.73 -2.14,-3.76l-4.15 -3.6c-7.4,3.92 -11.19,6.53 -11.56,23.13z"/>
   <path class="fil0" d="M1525.03 400.75c0.67,-5.37 8.22,0.44 2.06,0.45 -1.28,0 -2.57,3.66 -2.06,-0.45zm-5.78 0c0,36.35 13.73,17.91 15.42,11.57 -11.97,6.33 -10.18,3.79 -13.49,1.92 6.19,-11.7 5.24,-3.56 9.71,-9.78 3.69,-5.13 1.76,-13.08 -4.29,-9.89 -2.94,1.56 -2.24,4.33 -7.35,6.18z"/>
   <path class="fil0" d="M1615.61 416.17c0,-11.75 0.16,-11.43 7.7,-15.42 3.44,6.12 4.23,14.41 -7.7,15.42zm-3.85 3.86c12.28,2.6 23.44,-8.26 13.49,-23.13 -11.86,0 -13.49,4.58 -13.49,23.13z"/>
   <path class="fil0" d="M1195.45 398.83l0 3.85c8.33,3.2 1.08,-1.36 3.04,8.5 2.67,13.39 11.26,7.62 14.31,6.91l0 -3.86c-10.87,2.54 -11.56,1.25 -11.56,-11.56 8.9,-0.2 6.46,-1.93 13.49,-1.93l-11.57 -1.92 0 -9.64 -5.78 0c2.7,11.58 1.87,8.1 -1.93,9.64z"/>
   <path class="fil0" d="M1665.72 391.11l0 23.12c0,10.63 10.85,1.68 13.49,-1.92 -7.61,-3.15 0.82,-0.86 -9.63,1.92l0 -28.9c-3.25,2.26 -3.85,0.28 -3.85,5.78z"/>
   <path class="fil0" d="M1640.67 420.03l3.85 0c0.25,-11.32 3.99,-17.06 13.49,-19.28l0 -3.85c-9.28,0.78 -6.65,3.13 -13.49,7.71 -0.26,-11.67 1.25,-5.65 -3.85,-7.71l0 23.13z"/>
   <path class="fil0" d="M1459.5 398.83l0 3.85c4.63,1.87 1.53,-2.14 3.32,2.45 1.06,2.73 0.23,4.25 0.69,7.03 1.98,12.13 9,6.94 13.33,5.93l0 -3.86c-9.76,2.28 -11.29,0.69 -11.56,-11.56 8.9,-0.2 6.46,-1.93 13.49,-1.93l-11.57 -1.92 -3.85 -9.64c0,10.91 1.69,7.4 -3.85,9.64z"/>
   <path class="fil0" d="M1291.82 420.03l3.85 0c0,-18.8 6.74,-13.92 13.49,-23.13 -7.28,0.61 -10.4,4.36 -15.42,7.71l-3.85 -7.71c0,9.67 1.93,11.87 1.93,23.13z"/>
   <path class="fil0" d="M1353.5 414.24c0,12.44 11.29,-0.56 13.49,-3.85 -5.07,1.18 -5.67,1.76 -9.63,3.85 0,-23.26 5.55,-16.52 -3.86,-17.34l0 17.34z"/>
   <path class="fil0" d="M1351.56 393.04c6.28,-1.68 7.97,-3.36 9.64,-9.64 -4.3,1.56 -2.98,1.13 -5.57,4.07 -1.91,2.17 -2.59,3.36 -4.07,5.57z"/>
  </g>
  <g id="_1555282291872">
   <path class="fil1" d="M686.32 58.43c-1.39,0 -2.6,-0.93 -4.32,-1.24 -8.69,-1.57 -4.56,-0.05 -9.79,-0.05 -1.2,0 -2.33,-1.7 -3.09,-2.46 -1.05,-1.05 -2.17,-1.85 -3.33,-2.67 -6.29,-4.45 -6.89,-2.5 -12.77,-4.76 -4.6,-1.78 -9.44,-3.36 -14.6,-3.36 -6.39,0 -28.21,-0.89 -33.6,1.04 -2.7,0.96 -4.19,2.02 -7.1,2.74 -10.57,2.62 -15.78,-1.86 -27.06,12.72l-6.78 8.19c-2.43,2.96 -7.65,1.82 -14.86,1.82 -5.15,0 -10.01,-1.28 -14.11,-1.28 -3.68,0 -4.02,0.61 -7.87,-0.69 -2.49,-0.84 -4.69,-1.48 -7.05,-2.36l-4.24 -2.6c-0.24,-0.21 -0.43,-0.37 -0.68,-0.6l-0.65 -0.64c-6.09,-6.5 -7.98,-1.57 -11.3,-4.95 -1.5,-1.53 -1.83,-2.59 -3.65,-4.06 -2,-1.61 -7.37,-5.28 -9.91,-5.49 -0.21,9.63 -14.14,19.78 -23.09,20.53 -0.04,1.63 -1.33,5.9 -1.87,7.54 -1.65,5.02 -3.47,9.91 -4.51,15.17 -0.88,4.46 -0.22,4.15 1.53,7.36l14.74 28.88c0.56,1.29 1,1.81 1.66,3.05l19.1 34.35c0.72,1.22 1.2,1.97 2.03,3.11 1.47,2.02 2.55,3.99 4.52,5.31 1,-0.23 5.07,-2.48 6.24,-3.17 2.06,-1.23 3.94,-2.22 6.03,-3.38 12.09,-6.72 24.53,-13.02 36.51,-19.94 4.01,-2.32 8.03,-4.32 12.24,-6.58 3.8,-2.03 9.04,-3.89 10.99,-7.83 3.15,-6.34 5.65,-13.43 7.91,-20.31 0.77,-2.33 2.11,-5.03 2.63,-7.21 -0.71,-0.52 0.07,0.07 -0.67,-0.61l-0.44 -0.41c-0.06,-0.06 -0.16,-0.15 -0.22,-0.2 -7.57,-6.85 -10.02,-19.34 -5.37,-28.57 1.6,-3.18 2.33,-4.08 4.68,-6.44 6.83,-6.87 18.41,-9.24 27.56,-4.67 15.95,7.96 18.76,30.6 3.87,41.24 -5.18,3.7 -11.08,4.93 -17.44,4.41 -3.03,-0.25 -4.14,-1.11 -6.4,-1.3 -0.55,2.34 -1.82,4.46 -2.52,6.89 -1.43,4.95 -5.92,21.87 -9.75,24.47 -1,0.68 -2.21,1.06 -3.38,1.76l-12.72 6.95c-1.2,0.65 -1.94,0.92 -3.14,1.56 -1.33,0.71 -1.86,1.13 -3.28,1.86l-9.41 5.13c-1.28,0.69 -2.17,1.02 -3.42,1.72l-38.36 20.67 17.28 34.56c2.52,-0.09 18.98,-10.16 22.5,-11.89l55.74 -30.65c2.05,-1.1 3.55,-1.97 5.57,-2.99l25.15 -13.77c12.17,-6.61 24.09,-13.75 36.44,-20.02 1.28,-0.65 1.54,-0.91 2.71,-1.56 1.06,-0.59 1.79,-0.85 2.84,-1.44l19.53 -10.83c0.97,-0.5 1.77,-0.83 2.82,-1.46 1.06,-0.63 1.71,-1 2.72,-1.56 0.94,-0.52 2.11,-1.08 3.02,-1.69 -0.14,-1.61 -0.56,-2.11 -0.87,-3.83 -1.46,-8.02 1.17,-16.91 6.53,-22.16 11.8,-11.54 31.74,-8.18 38.94,6.63 11.22,23.06 -16.83,45.3 -37.28,29.15 -2.11,-1.66 -2,-1.59 -3.48,-3.8l-11.1 6.01c-1.75,1.02 -3.54,2.05 -5.44,3.11l-5.84 3.15c-1.09,0.59 -1.87,0.88 -2.83,1.44 -0.97,0.56 -1.5,0.95 -2.72,1.56l-50.48 27.36c-9.48,4.77 -18.4,10.57 -27.94,15.26 -2.25,1.11 -3.6,2 -5.85,3.13l-50.39 27.45c-3.03,1.62 -14.51,8.46 -17.04,9.06l15.11 29.37c1.72,3.45 3.26,6.7 4.99,9.98 7.52,-3.98 15.45,-7.72 23.09,-11.55 11,-5.5 16.24,-1.28 30.37,-1.28 0.46,-5.54 3.73,-10.41 7.37,-14.02 14.42,-14.31 40.53,-3.16 40.53,15.73 0,4.59 -0.34,9.32 -2.58,13.24 -2.56,4.49 -6.37,8.9 -11.47,10.77 -11.5,4.21 -22.49,1.99 -29.89,-8.3 -1.52,-2.11 -2.79,-5.14 -3.46,-7.67 -0.12,-0.47 -0.57,-3.21 -0.59,-3.25 -0.6,-1.42 -2.33,-1.23 -5.89,-1.38 -9.09,-0.38 -15.56,-1.85 -24.1,2.43 -5.57,2.79 -24.24,10.18 -24.24,14.69 0,2.69 3.19,6.82 4.42,9.27 5.38,10.8 11.45,20.94 17.11,31.64 0.85,1.6 1.65,2.93 2.42,4.42l9.76 18.04c2.17,4.06 2.94,8.05 7.77,8.05 1.55,0 1.5,-0.51 2.99,-0.85 0.89,1.32 2.05,2.42 3.31,3.54 8.4,7.41 13.33,-2.61 15.87,-9.59 0.72,-1.96 1.08,-3.16 2.64,-4.2 1.33,2.52 1.83,5.95 2.52,9.03 0.49,2.22 0.99,2.17 1.56,4 0.48,1.52 0.71,3.47 1.05,4.94 1.77,-0.47 18.47,-15.4 36.72,-1.65 2.41,1.81 1.83,2.76 4.76,2.08 0,-13.66 -1.12,-11.71 8.24,-19.56 3.59,-3.01 -0.46,-7.67 3.74,-14.65 2.76,-4.59 6.59,-5.53 6.83,-11.99 0.27,-6.99 1.71,-4.61 1.71,-8.13 0,-3.35 -1.28,-5.1 -1.28,-8.55 0,-2.51 5.76,-4.22 8.56,-4.28 0.37,-4.42 2.3,-5.27 6.02,-5.53 4.29,-0.3 5.12,-2.66 6.8,-5.18 1,-1.51 3.06,-2.52 4.72,-3.4 -0.49,-5.88 -1.91,-4.07 1.64,-9.91 1,-1.63 1.5,-3.36 1.73,-5.54 0.42,-4.02 0.05,-10.23 0.05,-14.49 3.48,-0.29 5.54,-3.78 8.9,-4.36 1.01,-0.18 2.98,-0.26 4.12,-0.59 4.04,-1.14 2.82,-6.36 3.97,-9.71 2.28,-6.62 -0.74,-5.99 -0.74,-7.58 0,-1.64 1.21,-8.76 2.43,-9.97 2.93,-2.89 3.95,-0.26 6.83,-6 1.7,-3.4 3.19,-4.48 3.15,-9.69 -0.03,-2.72 0.61,-3.15 0.84,-5.57 0.24,-2.48 -0.47,-3.83 0.54,-5.87 0.78,-1.56 1.8,-1.98 2.33,-3.65 0.7,-2.2 0.43,-2.91 1.76,-4.65 4.23,-5.5 0.17,-5.9 4.63,-8.2 3.3,-1.7 6.03,-7.59 8.28,-10.97 0.87,-1.31 1.78,-3.42 3.42,-3.42 4.14,0 4.53,4.8 10.38,-1.17 3.49,-3.57 11.41,-7.78 16.11,-9.56 5.89,-2.23 -0.35,-8.18 0.17,-11.75l1.87 -6.75c1.54,-3.22 -0.48,-6.65 0.54,-10.13 1.96,-6.67 0.71,-3.62 -3.31,-7.35 -5.86,-5.42 -0.36,-6.32 -16.77,-6.32 -0.84,-1.75 -1.59,-12.2 -2.07,-15.04l-2.63 -14.91c-0.94,-5.59 -5.01,-10.96 -8.14,-15.39l-5.01 -6.97c-2.6,-3.54 -4.05,-7.37 -6.71,-10.82 -2.75,-3.56 -6.89,-2.31 -12.23,-2.31 -5.44,0 -6.41,8.02 -10.29,8.53 -1.39,0.18 -3.25,-0.1 -4.68,0.03 -2.67,0.24 -8.4,2.31 -9.93,4.19 -1.44,1.78 -2.36,3.69 -4.07,5.34 -2.06,1.97 -3.06,2.35 -5.8,3.61 -2.99,1.37 -2.85,3.78 -6.09,8.02 -0.7,0.91 -1.3,1.94 -2.76,1.94z"/>
   <path class="fil1" d="M251.35 365.94c1.05,4.51 0.43,9.88 0.43,14.54 2.16,0 3.28,-0.45 5.98,-0.43 6.45,0.04 14.24,0.72 20.5,-0.04 2.52,-0.3 2.15,-1.25 5.58,-1.26 2.26,-0.01 4.63,0.1 6.88,0.04 7.83,-0.24 17.87,-1.43 25.07,1.85 4.4,2 11.53,0.34 16.09,4.86l9.48 8.06c2.87,2.22 6.54,6.43 8.46,9.5 0.93,1.5 1.52,3.06 2.46,4.38 1.05,1.46 2.36,2.21 3.23,4.04 1.57,3.33 3.38,6.13 4.42,9.69 0.93,3.2 2.69,3.61 5.28,4.99 1.09,0.58 1.39,0.81 2.91,0.94 0,3.56 -0.26,1.45 -1.71,3.42 0.42,0.87 1.12,2.83 1.23,3.9 0.46,4.18 -0.06,2.83 1.69,6.44 2.11,4.35 3.05,9.56 4.84,13.98 2.67,6.61 0.79,2.3 3.88,7.24 4.86,7.79 15.52,18.48 25.14,18.48l9.44 -0.83c3.67,-0.3 -0.19,-1.07 3.79,-1.34 1.78,-0.12 3.65,0.19 5.49,-0.07 1.29,-0.18 2.69,-0.68 4.37,-0.76 5.37,-0.25 4.39,-0.19 9.24,-1.45 1.58,-0.41 3.5,-0.26 5.31,-0.26 0.72,-1.08 1.36,-1.93 1.71,-3.42l5.13 0c0.37,1.59 0.7,1.2 0.85,3 3.89,0 5.69,-1.91 8.67,-2.46 3.09,-0.57 7.35,-0.18 10.01,-1.11l8.87 -2.26c11.07,-2.42 18.11,-0.73 20.19,-1.17 2.1,-0.44 2.75,-1.52 4.45,-2.42 0,-1.63 0.24,-2.26 0.31,-3.11 0.13,-1.49 -0.15,-1.59 -0.29,-3.32 -0.24,-2.99 -1.12,-2.93 -1.73,-5.54 2.6,0 2.21,0.42 3.69,1.87 0.41,0.41 0.7,0.65 1.11,1.03 1.29,1.16 3.42,2.67 5.46,2.67 2,0 0.77,-2.39 3.16,-4.11 3.03,-2.18 2.54,-3.3 4.18,-6.52 1.26,-2.46 2.09,-5.06 3.91,-7.21 1.2,-1.41 2.7,-2.09 3.33,-3.94 1.06,-3.13 0.32,-9.44 1.41,-13.13 0.56,-1.9 1.98,-3.74 1.98,-5.3 0,-4.14 -2.57,0.22 -2.57,-11.12 0,-3.85 4.24,-5.22 6.44,-6.82 1.85,-1.35 1.37,-2.3 2.85,-3.99 4.21,-4.76 11.65,-14.26 16.37,-17.42 -3.63,-6.86 -8.81,-14.94 -12.91,-21.73l-9.74 -16.35c-3.14,-5.44 -6.19,-11.17 -9.68,-16.41 -5.87,-8.83 -10.38,-18.54 -16.26,-27.37 -0.87,-1.31 -2.84,-4.41 -3.17,-5.81 -1.78,0.42 -7.23,3.34 -8.9,4.36 -5.99,3.65 -19.48,9.84 -26.6,13.6 0.25,2.97 1.77,5.44 2.87,8.25 1.11,2.82 1.87,5.33 3,8.12 1.36,3.4 5.68,13.44 5.68,16.98 0,8.2 -1.91,20 -5.13,26.09 1.71,0.91 3.48,1.37 5.28,2.42 12.93,7.53 10.43,29.24 -3.84,36.23 -19.41,9.51 -39.03,-14 -24.72,-32.42 2.24,-2.88 6.65,-5.82 10.78,-6.76 7.42,-1.69 4.94,0.61 7.96,-9.57 1.15,-3.87 2.84,-10.13 2.84,-14.7 0,-4.74 -5.78,-17.88 -8.52,-22.7 -3.44,-6.03 -7.43,-5.11 -12.93,-2.59 -6.13,2.81 -12.13,6.26 -18.46,8.91 -8.76,3.67 -7.77,14.86 -9.09,22.99 -0.26,1.57 -0.59,2.63 -0.63,4.08 6.61,0.55 13.26,11.54 13.26,17.96 0,9.03 -4.38,16.57 -12.54,20.39 -4.85,2.28 -11.98,2.28 -16.84,0l-6.18 -4.08c-12.76,-11.63 -5.75,-35.98 15.46,-35.98 0.93,-11.19 2.45,-24.55 11.79,-30.98 5.93,-4.09 15.25,-6.62 22.15,-9.93 2.09,-1 5.53,-3.1 7.55,-3.57 -0.49,-2.09 -1.68,-3.13 -2.76,-4.94l-8.97 -14.13c-1.99,-3.04 -11.17,-16.65 -11.8,-19l-60.91 32.33c-1.95,1.17 -3.67,1.76 -5.63,2.93 -10.69,6.4 -22.39,11.52 -33.13,17.76l-33.52 17.8c-3.8,2.1 -7.45,3.79 -11.12,5.99l-33.61 17.72z"/>
   <path class="fil1" d="M290.28 88.37l0.46 7.27c0.05,2.66 -0.89,4.52 -0.89,6.84 0,3.35 0.85,5.75 0.85,9.41 0,0.1 -1.28,1.37 -1.28,4.7 0,4.59 4.63,3.05 -0.96,9.3 -2.23,2.49 -2.61,8.35 -3.27,11.69 -1.75,8.85 -2.3,5.65 4.56,12.04 0.6,0.56 0.89,0.96 1.49,1.51 0.73,0.67 1.19,0.84 1.69,1.31 1.46,1.37 0.88,2.44 1.5,4.48 0.5,1.61 1.24,2.34 1.41,4.15 0.32,3.58 -0.51,7.18 1.76,10.22 2.84,3.8 2.6,5.07 0.92,10 -0.48,1.41 -0.89,3.52 -1.4,4.59 -3.14,0 -5.41,-0.67 -6.69,1.43 -6.8,11.13 5.34,8 0.09,15.49 -1.45,2.07 -2,7.78 -4.85,10.12 -1.85,1.52 -5.65,0.59 -7.7,2.13 -2.65,1.98 -1.37,4.41 -1.37,8.03 -1.84,0.49 -3.01,2.52 -4.1,4.03l-3.11 5.12c-1.22,2.93 3.62,0.11 11.36,4.24 6.52,3.48 12.54,10.96 12.54,20.82 1.43,0.69 3.3,1.06 5.17,1.25 2.13,0.23 3.82,0.65 5.58,0.83 6.74,0.7 14.16,0.44 20.9,0.06 4.52,-0.26 11.66,-5.43 15.97,-7.56 10.38,-5.13 19.99,-11.12 30.37,-16.25 1.97,-0.97 3.26,-1.81 4.98,-2.71l15.69 -8.26c1.17,-0.63 1.22,-0.79 2.46,-1.39 10.88,-5.25 7.21,-5.97 -1.46,-21.99 -3.93,-7.25 -4.83,-8.11 -14.17,-11.07 -2.86,-0.91 -10.62,-3.41 -13.21,-3.47 -1.59,6.85 -12.72,13.26 -20.1,13.26 -10.8,0 -18.86,-4.59 -23.39,-14.25 -5.62,-11.98 0.16,-26.12 11.69,-31.67 9.17,-4.41 19.78,-2.21 27.2,4.32 6.21,5.45 7.16,12.67 7.16,20.21 0,1.48 -0.31,1.66 -0.43,3 2.43,0.57 4.65,1.2 7.12,1.86 8.63,2.31 12.52,2.54 18.87,9.36 4.71,5.06 10.62,16.2 14.22,23 2.64,-0.61 7.65,-3.62 10.12,-4.85 1.03,-0.51 1.52,-0.77 2.53,-1.33 1.12,-0.62 1.46,-0.68 2.6,-1.25 1.29,-0.64 1.09,-0.67 2.54,-1.31l9.93 -5.04c3.54,-1.92 9.34,-5.49 12.92,-6.33 -0.25,-1.09 -2.04,-4.2 -2.74,-5.38 -6.67,-11.17 -13.98,-26.11 -20.76,-37.84l-32.37 -59.15c-2.78,-5.52 -6.23,-10.71 -8.99,-16.24 -4.58,-9.17 -9.99,-17.74 -14.69,-26.8l-11.79 -21.57c-4,-6.71 -1.49,-4.95 -12.58,-4.95 -5.31,0 -10.14,1.45 -15.08,2.88 -1.82,0.53 -1.13,0.28 -2.35,1.5 -1.96,1.94 -4.22,2.68 -6.19,4.93l-6.01 5.54c-4.21,3.03 -1.88,6.87 -2.5,12.47 -0.19,1.71 -0.4,4.9 -0.74,6.54 -0.59,2.86 -0.92,3.02 -2.26,5 -1.17,1.72 -1.04,2.73 -2.63,4.64 -1.48,1.79 -1.69,2.63 -3.39,4.31 -1.54,1.51 -2.07,2.18 -3.44,3.83 -3.13,3.74 -9.71,7.44 -9.71,12.96z"/>
   <path class="fil1" d="M321.93 268l-18.83 -0.84c-3.65,-0.31 -7.33,-1.3 -11.11,-1.3 -2.75,11.81 -22.75,23.71 -38.8,10.14l-2.75 -2.81c-1.17,-1.14 0.37,-0.34 -1.22,-0.92l1.28 5.56c0,1.57 -2.57,4 -2.57,9.83 0,4.57 2.5,2.7 1.11,10.52 -1.66,9.27 -2.92,6.93 -1.05,15.52 0.28,1.31 0.4,2.92 0.37,4.76 -0.06,5.2 0.4,4.65 2.49,7.78 2.63,3.93 0.44,2.84 -0.21,7.37 -0.34,2.36 0.72,6.29 0.72,9.24 0,1.52 -0.85,2.39 -0.85,3.42l0.41 11.61c0.25,2.2 1.06,1.51 2.17,0.87l51.89 -27.74c1.09,-0.59 1.87,-0.88 2.83,-1.44 9.29,-5.4 21.85,-11.53 31.8,-16.96l11.7 -6.26c2.25,-1.11 3.59,-2.03 5.85,-3.13l11.4 -6.14c12.2,-6.35 28.96,-15.82 40.5,-21.52 2.99,-1.48 15.93,-8.8 17.68,-9.26 -0.16,-1.91 -1.36,-3.64 -2.22,-5.05l-5.48 -9.92c-3.46,-6.7 -9.73,-16.9 -13.69,-24.38 -0.44,0.21 -0.78,0.3 -1.21,0.5l-69.93 37c-3.88,1.94 -6.57,3.56 -12.26,3.56z"/>
   <path class="fil1" d="M362.56 21.22c0.14,1.67 7.02,13.75 8.37,16 1.06,1.78 1.87,3.44 2.88,5.24l41.92 76.98c0.63,1.17 1,1.6 1.57,2.7 8.23,15.82 18.06,32.37 26.08,47.91 0.93,1.79 1.82,3.25 2.85,5.28 0.59,1.16 0.89,1.54 1.41,2.44 0.56,0.96 0.86,1.74 1.44,2.83l2.87 5.26c1.08,1.85 1.94,3.63 2.98,5.58 2.3,-0.19 11.75,-5.82 14.55,-7.27l23.52 -12.83 -39.06 -70.43c-0.72,-1.35 -1.24,-1.81 -1.84,-3.29 -1.56,-3.84 1.06,-12.87 1.9,-16.19 0.89,-3.56 3.68,-12.2 3.94,-15.31 -2.69,-0.22 -6.66,-3.07 -7.99,-3.56l-6.69 -1.24c-8.91,0.58 -9.26,-9.58 -17.75,-20.08 -0.88,-1.09 -1.91,-2 -2.95,-3.04 -1.19,-1.2 -11.85,-9.65 -13.54,-9.97 -2.84,-0.55 -3.91,3.05 -9.16,-0.26 -1.68,-1.06 -6.69,-2.58 -10.11,-4.01 -2.98,-1.24 -3.25,-1.94 -6.77,-2.64 -9.1,-1.81 0.69,-5.03 -20.42,-0.11z"/>
   <path class="fil1" d="M502.41 288.96c0.5,2.13 16.04,27.59 18.84,32.48l30.58 51.54c0.62,1.07 0.97,2.37 2.33,2.37 0.83,0 7.07,-2.15 7.78,-2.48 1.64,-0.76 1.2,-1.28 1.94,-3.19 2.61,-6.79 -0.43,-9.2 6.09,-9.74 3.53,-0.29 3.85,-3.23 6.01,-4.68 -0.67,-1 -1.8,-2.6 -2.14,-3.85 1.57,-0.37 4.99,-2.44 6.84,-3.42 -0.69,-2.94 -3.45,-6.93 -4.85,-9.69l-11.31 -21.62c-0.54,-0.93 -0.9,-1.53 -1.37,-2.48l-20.55 -38.9c-0.92,-1.57 -2.07,-3.12 -2.55,-5.15 -2.05,0.17 -3.33,1.31 -4.72,2.12l-23.5 11.99c-2.13,1.06 -7.47,4.26 -9.41,4.71z"/>
   <path class="fil1" d="M498.99 252.18c0.13,1.56 1.55,3.52 2.28,4.99 0.87,1.75 1.58,3.24 2.42,4.85l5.14 9.83 9.55 -4.99c1.78,-0.88 3.05,-1.62 4.79,-2.48l4.91 -2.36c-0.66,-2.83 -9.34,-17.55 -9.83,-19.67 -1.62,0.86 -2.98,1.71 -4.7,2.57 -1.64,0.81 -3.09,1.55 -4.85,2.42 -2.68,1.33 -6.99,4.22 -9.69,4.85zm14.5 8.53c1.41,0 2.65,-0.83 2.65,-2.17 0,-1.04 -0.73,-1.7 -1.83,-2.17 -0.76,-0.31 -1.26,-0.42 -1.26,-0.74 0,-0.24 0.28,-0.43 0.66,-0.43 0.34,0 0.88,0.16 1.09,0.53l1.07 -1.04c-0.27,-0.69 -1.11,-1.2 -2.18,-1.2 -1.33,0 -2.49,0.87 -2.49,2.08 0,1.06 0.76,1.64 1.65,2.02 0.69,0.31 1.41,0.63 1.41,0.98 0,0.29 -0.39,0.43 -0.78,0.43 -0.59,0 -1.13,-0.26 -1.43,-0.69l-1.13 1.11c0.35,0.78 1.4,1.28 2.56,1.28z"/>
   <path class="fil1" d="M466.91 237.2l9.83 19.25c2.11,-0.49 15.7,-7.96 19.25,-9.84 -0.42,-1.81 -9.15,-17.95 -9.84,-19.24 -6.39,3.38 -12.86,6.46 -19.24,9.83zm15.13 8.88c1.07,0 1.96,-0.43 2.63,-1.03l-1.06 -1.42c-0.45,0.41 -0.98,0.69 -1.57,0.69 -1,0 -1.94,-0.8 -1.94,-1.89 0,-1.07 0.9,-1.9 1.98,-1.9 0.52,0 1.09,0.26 1.52,0.65l1.07 -1.37c-0.72,-0.66 -1.69,-1.05 -2.6,-1.07 -2.19,0 -3.87,1.6 -3.87,3.68 0,2.2 1.85,3.67 3.83,3.67z"/>
   <path class="fil1" d="M430.13 224.8c0.94,4.04 9.18,16.46 9.41,19.25 2.56,-0.06 3.32,-1.2 5.13,-2.15l14.55 -7.26c-0.13,-1.56 -1.55,-3.52 -2.28,-4.99 -0.94,-1.89 -1.58,-2.96 -2.56,-4.71 -1.83,-3.26 -3.04,-6.61 -5,-9.55 -1.65,0.14 -12.36,5.83 -14.36,7.02 -1.63,0.98 -2.96,1.94 -4.89,2.39zm15.71 1.9l0 3.43 -3.6 -3.49 -0.6 0 0 7.1 1.87 0 0 -3.43 3.61 3.5 0.59 0 0 -7.1 -1.87 0z"/>
   <path class="fil1" d="M472.47 200.85l9.83 19.24c2.53,-0.59 18.32,-9 19.25,-10.26l-4.84 -9.27c-1.82,-3.26 -3.03,-6.61 -5,-9.55l-14.4 7.41c-1.33,0.67 -3.74,2.13 -4.85,2.43zm16.2 8.26l2.04 0 -3.27 -7.11 -0.89 0 -3.26 7.11 2.04 0 0.35 -0.82 2.63 0 0.35 0.82zm-2.39 -2.18l0.72 -1.67 0.72 1.67 -1.44 0z"/>
   <path class="fil1" d="M257.34 255.6c0,6.89 4.91,12.4 10.69,12.4l2.57 0c4.83,0 10.26,-5.43 10.26,-10.26 0,-4.02 -0.03,-7.14 -3.73,-10.39 -7.51,-6.59 -19.8,-0.85 -19.8,8.25z"/>
   <path class="fil1" d="M588.8 84.52l0 2.14c0,5.19 5.51,10.69 10.69,10.69 4.04,0 5.96,-0.17 9.1,-3.31 1.06,-1.06 1.62,-1.41 2.32,-2.81 3.97,-7.9 -0.46,-17.41 -11.42,-17.41 -5.18,0 -10.69,5.51 -10.69,10.69z"/>
   <path class="fil1" d="M462.21 273.56l9.83 18.82c2.85,-0.24 16.92,-8.79 19.25,-9.41 -0.18,-2.15 -5.7,-11.38 -7.13,-14.25 -0.78,-1.55 -1.91,-3.41 -2.28,-5 -1.94,0.16 -8.04,3.48 -9.92,4.62l-9.75 5.21zm14.54 8.19c2.19,0 3.86,-1.59 3.86,-3.68 0,-2.11 -1.67,-3.71 -3.86,-3.71 -2.18,0 -3.85,1.6 -3.85,3.71 0,2.09 1.67,3.68 3.85,3.68zm0 -1.78c-1.11,0 -1.97,-0.83 -1.97,-1.91 0,-1.09 0.85,-1.92 1.97,-1.92 1.11,0 1.97,0.83 1.97,1.92 0,1.08 -0.85,1.91 -1.97,1.91z"/>
   <path class="fil1" d="M611.47 250.89c0,5 4.75,11.12 10.26,11.12 4.19,0 6.01,0.2 9.53,-3.3 6.6,-6.56 3.38,-19.37 -9.1,-19.37 -5.67,0 -10.69,5.77 -10.69,11.55z"/>
   <path class="fil1" d="M342.45 187.59l3 0c4.96,0 10.26,-5.3 10.26,-10.26l0 -2.14c0,-4.84 -5.43,-10.27 -10.26,-10.27 -4.22,0 -6.09,0.22 -9.32,3.52 -8.35,8.52 0.68,19.15 6.32,19.15z"/>
   <path class="fil1" d="M713.69 106.33c0,6.25 4.84,11.55 10.26,11.55l2.14 0c5.42,0 10.26,-5.3 10.26,-11.55 0,-14.52 -22.67,-15.01 -22.67,0z"/>
   <path class="fil1" d="M398.91 375.78c0,2.96 1.93,6.46 3.51,8.04 10.76,10.76 26.66,-5.46 16.07,-16.08 -3.52,-3.53 -7.78,-4.21 -12.49,-2.4 -1.35,0.52 -2.63,1.52 -3.58,2.41 -1.58,1.47 -3.51,5.17 -3.51,8.04z"/>
   <path class="fil1" d="M448.95 45.17c0,4.74 3.21,8.76 6.48,10.2 4.89,2.16 9.21,1.4 12.94,-2.33 4.68,-4.67 4.13,-11.87 -0.07,-16.11 -6.78,-6.83 -19.35,-2.21 -19.35,8.23z"/>
   <path class="fil1" d="M461.35 399.73c3.65,0 5.95,0.3 9.33,-3.08 7.3,-7.3 1.26,-20.43 -10.14,-18.28 -6.02,1.14 -10,7.88 -7.87,14.22 0.99,2.93 4.93,7.14 8.69,7.14z"/>
  </g>
 </g>
</svg>
